<?xml version="1.0" standalone="no"?>
<!DOCTYPE svg PUBLIC "-//W3C//DTD SVG 1.1//EN" "http://www.w3.org/Graphics/SVG/1.1/DTD/svg11.dtd" >
<svg xmlns="http://www.w3.org/2000/svg">
<metadata></metadata>
<defs>
<font id="rama_gothic_elight" horiz-adv-x="706" >
<font-face units-per-em="2048" ascent="1638" descent="-410" />
<missing-glyph horiz-adv-x="358" />
<glyph unicode="&#xfb01;" horiz-adv-x="786" d="M45 963v98h92v164q0 119 53 174t166 55q67 0 119 -20v-95q-47 21 -106 21q-63 0 -90 -33.5t-27 -116.5v-149h223v-98h-223v-963h-115v963h-92zM565 0v1061h115v-1061h-115zM565 1257v177h115v-177h-115z" />
<glyph unicode="&#xfb02;" horiz-adv-x="786" d="M45 963v98h92v164q0 119 53 174t166 55q67 0 119 -20v-95q-47 21 -106 21q-63 0 -90 -33.5t-27 -116.5v-149h223v-98h-223v-963h-115v963h-92zM565 0v1434h115v-1434h-115z" />
<glyph horiz-adv-x="2048" />
<glyph horiz-adv-x="2048" />
<glyph unicode="&#xd;" horiz-adv-x="2048" />
<glyph unicode=" "  horiz-adv-x="358" />
<glyph unicode="&#x09;" horiz-adv-x="358" />
<glyph unicode="&#xa0;" horiz-adv-x="358" />
<glyph unicode="!" horiz-adv-x="364" d="M119 909v525h125v-525l-35 -565h-53zM123 0v201h119v-201h-119z" />
<glyph unicode="&#x22;" horiz-adv-x="636" d="M121 1198v236h112v-236l-22 -473h-66zM403 1198v236h113v-236l-22 -473h-66z" />
<glyph unicode="#" d="M14 397l11 95h110l47 450h-110l10 94h111l43 398h92l-43 -398h202l41 398h93l-41 -398h112l-10 -94h-113l-47 -450h111l-8 -95h-111l-43 -397h-92l41 397h-201l-41 -397h-92l41 397h-113zM227 492h203l47 450h-203z" />
<glyph unicode="$" d="M74 309v203h114v-213q0 -193 160 -193q84 0 122 47.5t38 145.5v25q0 78 -24 141t-62 106.5t-84.5 83.5t-93 83t-84.5 93t-62 125.5t-24 169.5v4q0 283 241 302v100h70v-100q246 -19 246 -308v-198h-115v209q0 97 -39 144.5t-123 47.5t-121.5 -47t-37.5 -145v-9 q0 -79 24 -142t62.5 -106.5t85 -83.5t93 -83t85 -93t62.5 -125.5t24 -170.5v-19q0 -285 -246 -301v-100h-70v100q-241 19 -241 307z" />
<glyph unicode="%" horiz-adv-x="1206" d="M68 707v536q0 211 194 211q193 0 193 -211v-536q0 -211 -193 -211q-194 0 -194 211zM166 702q0 -61 22 -89.5t74 -28.5q50 0 73 28.5t23 89.5v547q0 59 -23 88t-73 29q-51 0 -73.5 -28.5t-22.5 -88.5v-547zM276 0l560 1434h92l-559 -1434h-93zM752 190v537q0 211 194 211 q193 0 193 -211v-537q0 -210 -193 -210q-194 0 -194 210zM850 186q0 -61 22 -89.5t74 -28.5q50 0 73 28.5t23 89.5v547q0 59 -23 88t-73 29q-51 0 -73.5 -28.5t-22.5 -88.5v-547z" />
<glyph unicode="&#x26;" horiz-adv-x="897" d="M45 553q0 83 34.5 145t100.5 119l86 74q-71 204 -71 319q0 107 54.5 175.5t156.5 68.5q104 0 152 -60t48 -163q0 -97 -47 -172.5t-158 -167.5q221 -556 252 -680q76 128 76 381v246h100v-236q0 -311 -116 -473q31 -39 86 -39q46 0 73 10v-100q-40 -14 -92 -14 q-99 0 -151 55q-87 -61 -191 -61q-36 0 -61.5 3.5t-57 16t-57 36t-54 65t-54.5 100.5l-56 125q-53 120 -53 227zM160 575q0 -83 47 -188l61 -139q46 -103 84.5 -135.5t93.5 -30.5q76 0 129 41l-274 678l-61 -53q-80 -70 -80 -173zM313 1214q0 -34 6 -72.5t11 -58t18 -62.5 t14 -48q84 72 117 130.5t33 127.5q0 129 -98 129q-101 0 -101 -146z" />
<glyph unicode="'" horiz-adv-x="352" d="M121 1198v236h112v-236l-22 -473h-66z" />
<glyph unicode="(" horiz-adv-x="432" d="M84 131v985q0 169 75 243.5t212 74.5h61v-95h-53q-97 0 -137.5 -49t-40.5 -166v-1001q0 -117 40.5 -166t137.5 -49h53v-94h-61q-137 0 -212 74t-75 243z" />
<glyph unicode=")" horiz-adv-x="432" d="M0 -92h53q97 0 137.5 49t40.5 166v1001q0 117 -40.5 166t-137.5 49h-53v95h61q137 0 212 -74.5t75 -243.5v-985q0 -169 -75 -243t-212 -74h-61v94z" />
<glyph unicode="*" horiz-adv-x="757" d="M2 860l313 166l-313 164l47 78l295 -189l-12 355h92l-12 -355l297 189l47 -78l-316 -164l316 -166l-47 -78l-297 187l12 -353h-92l12 353l-295 -187z" />
<glyph unicode="+" d="M84 664v104h217v252h102v-252h220v-104h-220v-252h-102v252h-217z" />
<glyph unicode="," horiz-adv-x="352" d="M92 -188l82 188h-55v227h112v-227l-125 -197z" />
<glyph unicode="-" horiz-adv-x="561" d="M74 477v103h413v-103h-413z" />
<glyph unicode="." horiz-adv-x="352" d="M119 0v227h112v-227h-112z" />
<glyph unicode="/" horiz-adv-x="622" d="M23 0l462 1434h115l-465 -1434h-112z" />
<glyph unicode="0" d="M84 274v885q0 295 268 295q271 0 271 -295v-885q0 -294 -271 -294q-131 0 -199.5 70.5t-68.5 223.5zM197 262q0 -92 37 -138t118 -46q83 0 119.5 45.5t36.5 138.5v909q0 92 -37 138.5t-119 46.5q-81 0 -118 -46.5t-37 -138.5v-909z" />
<glyph unicode="1" horiz-adv-x="425" d="M53 1264v96h90q79 0 82 74h70v-1434h-113v1264h-129z" />
<glyph unicode="2" horiz-adv-x="675" d="M74 0v154q0 103 23.5 190.5t61 150.5t83 120t91 110t83 108t61 128t23.5 157v45q0 193 -158 193q-156 0 -156 -193v-239h-106v227q0 303 266 303t266 -303v-31q0 -94 -23.5 -174.5t-61 -140.5t-83 -115l-91 -110t-83 -113.5t-61 -137t-23.5 -169.5v-47h422v-113h-534z " />
<glyph unicode="3" horiz-adv-x="679" d="M74 283v221h106v-234q0 -192 156 -192t156 192v236q0 98 -35 146t-121 48h-96v99h96q86 0 121 47t35 145v172q0 193 -156 193t-156 -193v-172h-106v160q0 303 266 303t266 -303v-135q0 -121 -35 -183t-106 -85q71 -23 106 -84.5t35 -182.5v-198q0 -303 -266 -303 t-266 303z" />
<glyph unicode="4" horiz-adv-x="692" d="M53 315v97l363 1022h131v-1008h92v-111h-92v-315h-113v315h-381zM164 426h270v483q0 267 15 394q-50 -203 -111 -377z" />
<glyph unicode="5" horiz-adv-x="714" d="M98 283v211h107v-224q0 -192 155 -192q158 0 158 192v533q0 103 -33 142.5t-106 39.5q-72 0 -123 -61.5t-51 -145.5v-94h-107v750h527v-113h-420v-379q27 63 83 102t128 39q101 0 158 -62.5t57 -215.5v-522q0 -303 -266 -303q-129 0 -198 75t-69 228z" />
<glyph unicode="6" horiz-adv-x="696" d="M84 274v877q0 303 266 303q264 0 264 -303v-39h-106v51q0 193 -156 193q-155 0 -155 -193v-327q27 63 83 102t128 39q100 0 157.5 -62.5t57.5 -214.5v-426q0 -294 -271 -294q-131 0 -199.5 70.5t-68.5 223.5zM197 262q0 -92 37 -138t118 -46q83 0 119.5 46t36.5 138v434 q0 104 -33 143.5t-104 39.5q-73 0 -123.5 -61.5t-50.5 -145.5v-410z" />
<glyph unicode="7" horiz-adv-x="638" d="M68 0l421 1321h-421v113h530v-97l-405 -1337h-125z" />
<glyph unicode="8" horiz-adv-x="686" d="M74 272v209q0 106 31 172.5t104 94.5q-73 28 -104 94t-31 174v145q0 293 270 293q132 0 200 -70t68 -223v-145q0 -107 -31.5 -173.5t-103.5 -94.5q135 -53 135 -267v-209q0 -292 -268 -292q-132 0 -201 70t-69 222zM186 262q0 -92 37.5 -138t120.5 -46q81 0 118.5 46 t37.5 138v234q0 109 -33 156.5t-123 47.5q-95 0 -126.5 -46t-31.5 -158v-234zM186 1001q0 -111 32 -156.5t126 -45.5q90 0 123 46.5t33 155.5v168q0 93 -37.5 140t-118.5 47q-83 0 -120.5 -47t-37.5 -140v-168z" />
<glyph unicode="9" horiz-adv-x="696" d="M74 754v405q0 295 268 295q270 0 270 -295v-876q0 -303 -266 -303t-266 303v59h106v-72q0 -192 156 -192q158 0 158 192v346q-28 -61 -83.5 -100t-127.5 -39q-102 0 -158.5 62t-56.5 215zM186 758q0 -104 33.5 -143.5t106.5 -39.5q72 0 123 61.5t51 145.5v389 q0 92 -37.5 138.5t-120.5 46.5q-81 0 -118.5 -46.5t-37.5 -138.5v-413z" />
<glyph unicode=":" horiz-adv-x="352" d="M119 0v227h112v-227h-112zM119 758v227h112v-227h-112z" />
<glyph unicode=";" horiz-adv-x="352" d="M92 -188l82 188h-55v227h112v-227l-125 -197zM119 758v227h112v-227h-112z" />
<glyph unicode="&#x3c;" d="M84 666v98l539 262v-104l-426 -205l426 -203v-108z" />
<glyph unicode="=" d="M84 500v104h539v-104h-539zM84 827v105h539v-105h-539z" />
<glyph unicode="&#x3e;" d="M84 406v108l426 203l-426 205v104l539 -262v-98z" />
<glyph unicode="?" horiz-adv-x="612" d="M41 924v227q0 303 266 303q264 0 264 -303v-41q0 -82 -13.5 -144t-35.5 -101t-48 -71t-52.5 -64.5t-48.5 -72t-35.5 -103.5t-13.5 -148v-62h-62v98q0 119 20.5 197.5t49 119.5t57.5 80t49.5 109t20.5 176v39q0 193 -156 193t-156 -193v-239h-106zM236 0v225h114v-225 h-114z" />
<glyph unicode="@" horiz-adv-x="1275" d="M84 717q0 90 5.5 164t21 152t41 138t68 115t100 90.5t138.5 56.5t181 21t180.5 -21t137.5 -56.5t99.5 -90.5t68 -115t41 -138t21 -152t5.5 -164t-5.5 -164t-21 -152t-41 -138t-68 -115t-99.5 -90.5t-137.5 -56.5t-180.5 -21t-181 21t-138.5 56.5t-100 90.5t-68 115 t-41 138t-21 152t-5.5 164zM172 717q0 -82 4 -146t16 -135t32.5 -123t55.5 -102t83.5 -81t118 -50t157.5 -19q87 0 156.5 19t118 50t84 80.5t56 102t32.5 123.5t16 135t4 146t-4 146t-16 134.5t-32.5 123t-56 102t-84 81t-118 50t-156.5 18.5q-88 0 -157.5 -18.5t-118 -50 t-83.5 -81t-55.5 -102t-32.5 -123t-16 -134.5t-4 -146zM434 465v41q0 68 22 119.5t54.5 79.5t71 52.5t71 41.5t54.5 44t22 62v58q0 64 -22 93t-74 29q-50 0 -72 -29t-22 -93v-109h-88v109q0 110 47 160.5t141 50.5t139 -50t45 -161v-476q0 -57 2.5 -93.5t5 -53.5t11.5 -66 h-84q-16 29 -19 97q-15 -49 -56.5 -81t-94.5 -32q-154 0 -154 207zM532 469q0 -72 23.5 -96.5t67.5 -24.5q43 0 74.5 35t31.5 84v303q-19 -18 -60.5 -45t-67 -47t-47.5 -60.5t-22 -93.5v-55z" />
<glyph unicode="A" horiz-adv-x="702" d="M25 0l247 1434h154l248 -1434h-125l-43 246h-328l-43 -246h-110zM197 354h288l-79 461q-36 202 -64 475q-25 -247 -66 -475z" />
<glyph unicode="B" horiz-adv-x="770" d="M117 0v1434h260q54 0 95.5 -6.5t83 -26t68.5 -52t43.5 -88t16.5 -131.5v-122q0 -115 -38.5 -176.5t-110.5 -86.5q155 -53 155 -262v-178q0 -76 -17.5 -131.5t-45 -88.5t-70 -52.5t-84.5 -26t-96 -6.5h-260zM242 111h120q116 0 158.5 41t42.5 153v195q0 112 -42.5 153 t-158.5 41h-120v-583zM242 803h120q116 0 158.5 41t42.5 153v133q0 110 -43 151.5t-158 41.5h-120v-520z" />
<glyph unicode="C" horiz-adv-x="739" d="M84 301v832q0 321 291 321q289 0 289 -321v-201h-117v213q0 201 -170 201q-168 0 -168 -201v-856q0 -201 168 -201q170 0 170 201v254h117v-242q0 -321 -289 -321q-291 0 -291 321z" />
<glyph unicode="D" horiz-adv-x="786" d="M117 0v1434h245q324 0 324 -318v-799q0 -317 -324 -317h-245zM242 111h108q116 0 163.5 45t47.5 157v807q0 112 -47.5 157.5t-163.5 45.5h-108v-1212z" />
<glyph unicode="E" horiz-adv-x="647" d="M117 0v1434h463v-111h-338v-520h307v-111h-307v-581h348v-111h-473z" />
<glyph unicode="F" horiz-adv-x="593" d="M117 0v1434h454v-111h-329v-543h297v-110h-297v-670h-125z" />
<glyph unicode="G" horiz-adv-x="751" d="M84 301v832q0 321 291 321q289 0 289 -321v-181h-117v193q0 201 -170 201q-168 0 -168 -201v-856q0 -201 168 -201q170 0 170 201v393h-170v104h291v-786h-66l-12 125q-55 -145 -238 -145q-268 0 -268 321z" />
<glyph unicode="H" horiz-adv-x="819" d="M117 0v1434h125v-631h338v631h125v-1434h-125v692h-338v-692h-125z" />
<glyph unicode="I" horiz-adv-x="350" d="M113 0v1434h125v-1434h-125z" />
<glyph unicode="J" horiz-adv-x="702" d="M20 287v256h119v-267q0 -95 40.5 -141.5t127.5 -46.5q88 0 129 46.5t41 141.5v1158h125v-1147q0 -307 -291 -307t-291 307z" />
<glyph unicode="K" horiz-adv-x="768" d="M117 0v1434h125v-789q27 68 170 365l204 424h121l-280 -578l295 -856h-129l-246 721l-135 -279v-442h-125z" />
<glyph unicode="L" horiz-adv-x="571" d="M117 0v1434h125v-1323h329v-111h-454z" />
<glyph unicode="M" horiz-adv-x="1085" d="M113 0v1434h172l182 -836q59 -284 72 -412q17 157 73 412l181 836h176v-1434h-121v903q0 193 10 395q-25 -166 -72 -395l-196 -903h-113l-196 903q-47 229 -72 395q10 -202 10 -395v-903h-106z" />
<glyph unicode="N" horiz-adv-x="821" d="M113 0v1434h168l249 -844q14 -50 43.5 -169.5t38.5 -154.5q-12 312 -12 328v840h109v-1434h-131l-287 967q-14 50 -44 171.5t-38 151.5q12 -208 12 -327v-963h-108z" />
<glyph unicode="O" horiz-adv-x="755" d="M84 301v832q0 321 293 321q295 0 295 -321v-832q0 -321 -295 -321q-293 0 -293 321zM209 289q0 -201 168 -201q170 0 170 201v856q0 201 -170 201q-168 0 -168 -201v-856z" />
<glyph unicode="P" horiz-adv-x="718" d="M117 0v1434h239q322 0 322 -318v-264q0 -317 -322 -317h-114v-535h-125zM242 645h102q114 0 161.5 45.5t47.5 157.5v272q0 112 -47.5 157.5t-161.5 45.5h-102v-678z" />
<glyph unicode="Q" horiz-adv-x="776" d="M84 301v832q0 321 293 321q295 0 295 -321v-973q0 -38 9 -53t34 -15t39 2v-104q-23 -10 -56 -10q-99 0 -116 88q-71 -88 -215 -88q-283 0 -283 321zM209 289q0 -201 168 -201q170 0 170 201v856q0 201 -170 201q-168 0 -168 -201v-856z" />
<glyph unicode="R" horiz-adv-x="776" d="M117 0v1434h260q54 0 96 -6.5t84.5 -26t70 -52t45 -88t17.5 -131.5v-153q0 -116 -42.5 -177.5t-119.5 -86.5q78 -27 120 -90t42 -181v-65q0 -177 9.5 -249.5t31.5 -127.5h-135q-33 118 -33 287v131q0 137 -48 188t-187 51h-86v-657h-125zM242 768h120q116 0 158.5 41.5 t42.5 153.5v167q0 110 -43 151.5t-158 41.5h-120v-555z" />
<glyph unicode="S" d="M74 301v193h116v-205q0 -101 37.5 -151t122.5 -50q86 0 122 49.5t36 151.5v24q0 80 -24 144.5t-62 109t-84.5 85.5t-93 85.5t-84.5 96.5t-62 130t-24 175q0 163 70 239t208 76q139 0 210 -77.5t71 -243.5v-152h-117v164q0 102 -36.5 151.5t-123.5 49.5q-86 0 -121.5 -49 t-35.5 -152v-12q0 -79 24 -143.5t62 -109t84.5 -86t93 -86t84.5 -96.5t62 -130t24 -175v-12q0 -163 -70 -239t-209 -76q-138 0 -209 77.5t-71 243.5z" />
<glyph unicode="T" horiz-adv-x="569" d="M0 1323v111h567v-111h-221v-1323h-125v1323h-221z" />
<glyph unicode="U" horiz-adv-x="780" d="M100 287v1147h125v-1158q0 -95 41 -141.5t129 -46.5q87 0 127.5 46.5t40.5 141.5v1158h117v-1147q0 -307 -289 -307q-291 0 -291 307z" />
<glyph unicode="V" horiz-adv-x="700" d="M29 1434h125l143 -816q36 -193 61 -456q28 260 64 456l141 816h113l-250 -1434h-150z" />
<glyph unicode="W" horiz-adv-x="1116" d="M29 1434h125l118 -793q37 -223 56 -461q13 201 51 461l121 793h133l121 -793q37 -251 53 -461q13 201 51 461l121 793h113l-215 -1434h-148l-121 795q-38 239 -51 436q-17 -213 -49 -436l-119 -795h-145z" />
<glyph unicode="X" horiz-adv-x="686" d="M29 0l235 741l-219 693h125l104 -328q54 -178 76 -275q27 109 78 275l102 328h113l-219 -693l235 -741h-127l-116 377q-56 176 -78 276q-27 -121 -76 -276l-121 -377h-112z" />
<glyph unicode="Y" horiz-adv-x="710" d="M29 1434h125l135 -486q62 -234 76 -315q15 96 73 315l135 486h113l-266 -934v-500h-125v492z" />
<glyph unicode="Z" horiz-adv-x="614" d="M45 0v86l389 1237h-381v111h516v-88l-391 -1235h391v-111h-524z" />
<glyph unicode="[" horiz-adv-x="464" d="M117 -186v1675h348v-94h-232v-1487h232v-94h-348z" />
<glyph unicode="\" horiz-adv-x="622" d="M23 1434h114l463 -1434h-113z" />
<glyph unicode="]" horiz-adv-x="464" d="M0 -92h231v1487h-231v94h348v-1675h-348v94z" />
<glyph unicode="^" d="M57 821l252 613h88l250 -613h-108l-187 473l-186 -473h-109z" />
<glyph unicode="_" horiz-adv-x="1024" d="M0 -86h1024v-88h-1024v88z" />
<glyph unicode="`" horiz-adv-x="561" d="M150 1415h122l136 -244h-74z" />
<glyph unicode="a" horiz-adv-x="702" d="M70 246v18q0 77 23.5 136.5t61 96.5t82.5 66t90 51.5t82.5 45t61 54t23.5 72.5v13q0 93 -34 138.5t-112 45.5q-80 0 -114.5 -45.5t-34.5 -138.5v-74h-107v61q0 153 65 224t193 71t193 -71t65 -224v-440q0 -242 19 -346h-109q-15 54 -18 135q-23 -67 -80.5 -111 t-134.5 -44q-49 0 -86 12t-67 40.5t-46 82.5t-16 131zM182 250q0 -101 32.5 -137.5t104.5 -36.5q73 0 124 61.5t51 145.5v325q-27 -23 -74 -49t-84.5 -47.5t-74.5 -52.5t-58 -78t-21 -109v-22z" />
<glyph unicode="b" horiz-adv-x="729" d="M106 0v1434h115v-492q26 61 81.5 100t127.5 39q102 0 158.5 -62t56.5 -216v-545q0 -154 -56.5 -216t-158.5 -62q-77 0 -134 43t-81 110l-31 -133h-78zM221 285q0 -84 50.5 -145.5t123.5 -61.5q71 0 104 39t33 143v541q0 104 -33 143t-104 39q-73 0 -123.5 -61.5 t-50.5 -145.5v-491z" />
<glyph unicode="c" horiz-adv-x="688" d="M84 274v512q0 153 67.5 224t198.5 71q130 0 197 -71t67 -224v-86h-106v99q0 92 -36.5 138t-119.5 46q-81 0 -118 -46t-37 -138v-537q0 -92 37 -138t118 -46q83 0 119.5 46t36.5 138v119h106v-107q0 -153 -67 -223.5t-197 -70.5q-131 0 -198.5 70.5t-67.5 223.5z" />
<glyph unicode="d" horiz-adv-x="729" d="M84 258v545q0 153 57 215.5t158 62.5q72 0 128 -39t83 -102v494h113v-1088q0 -149 3.5 -216t16.5 -130h-111q-15 52 -18 131q-24 -67 -81.5 -109t-133.5 -42q-101 0 -158 62.5t-57 215.5zM197 260q0 -104 33.5 -143t105.5 -39q73 0 123.5 61.5t50.5 145.5v491 q0 84 -50.5 145.5t-123.5 61.5q-72 0 -105.5 -39t-33.5 -143v-541z" />
<glyph unicode="e" horiz-adv-x="692" d="M84 274v512q0 153 67.5 224t198.5 71q130 0 197 -71t67 -224v-280h-417v-244q0 -92 37 -138t118 -46q83 0 119.5 46t36.5 138v94h106v-82q0 -153 -67 -223.5t-197 -70.5q-131 0 -198.5 70.5t-67.5 223.5zM197 602h311v197q0 92 -36.5 138t-119.5 46q-81 0 -118 -46 t-37 -138v-197z" />
<glyph unicode="f" horiz-adv-x="458" d="M45 963v98h92v164q0 119 53 174t166 55q67 0 119 -20v-95q-47 21 -106 21q-63 0 -90 -33.5t-27 -116.5v-149h223v-98h-223v-963h-115v963h-92z" />
<glyph unicode="g" horiz-adv-x="722" d="M76 602v193q0 152 66.5 219t197.5 67q166 0 227 -110q11 90 86 90q31 0 45 -4v-99q-28 7 -45 7q-41 0 -41 -74v-289q0 -152 -68 -219.5t-200 -67.5q-49 0 -86 9q-25 -7 -39 -30.5t-14 -51.5q0 -34 21 -58t61 -24h168q124 0 183.5 -50.5t59.5 -168.5q0 -111 -66 -165.5 t-186 -54.5h-133q-231 0 -231 193q0 120 86 162q-62 44 -62 131q0 100 80 143q-110 63 -110 252zM176 -70q0 -65 33 -95t121 -30h108q73 0 111.5 28.5t38.5 94.5q0 70 -33.5 95.5t-105.5 25.5h-158q-62 0 -88.5 -35t-26.5 -84zM188 592q0 -93 36.5 -139.5t119.5 -46.5 t119.5 46.5t36.5 139.5v213q0 93 -36.5 139.5t-119.5 46.5t-119.5 -46.5t-36.5 -139.5v-213z" />
<glyph unicode="h" horiz-adv-x="741" d="M106 0v1434h115v-492q26 61 81.5 100t127.5 39q102 0 158.5 -62t56.5 -216v-803h-113v801q0 104 -33 143t-104 39q-72 0 -123 -61.5t-51 -145.5v-776h-115z" />
<glyph unicode="i" horiz-adv-x="327" d="M106 0v1061h115v-1061h-115zM106 1257v177h115v-177h-115z" />
<glyph unicode="j" horiz-adv-x="327" d="M-31 -172q40 -10 62 -10q43 0 59 23t16 79v1141h115v-1145q0 -103 -40.5 -149t-131.5 -46q-40 0 -80 15v92zM106 1257v177h115v-177h-115z" />
<glyph unicode="k" horiz-adv-x="720" d="M106 0v1434h115v-949q27 55 156 265l196 311h109l-262 -430l285 -631h-117l-238 528l-129 -196v-332h-115z" />
<glyph unicode="l" horiz-adv-x="327" d="M106 0v1434h115v-1434h-115z" />
<glyph unicode="m" horiz-adv-x="1120" d="M106 0v1061h107v-137q21 70 75 113.5t132 43.5q74 0 121.5 -33.5t66.5 -113.5q26 65 82 106t131 41q100 0 151.5 -61.5t51.5 -216.5v-803h-113v801q0 106 -28 144t-99 38q-70 0 -115.5 -61t-45.5 -146v-776h-115v801q0 106 -28 144t-97 38q-70 0 -116 -61t-46 -146v-776 h-115z" />
<glyph unicode="n" horiz-adv-x="741" d="M106 0v1061h107v-141q23 71 80 116t137 45q102 0 158.5 -62t56.5 -216v-803h-113v801q0 104 -33 143t-104 39q-73 0 -123.5 -61.5t-50.5 -145.5v-776h-115z" />
<glyph unicode="o" d="M84 274v512q0 295 268 295q271 0 271 -295v-512q0 -294 -271 -294q-131 0 -199.5 70.5t-68.5 223.5zM197 262q0 -92 37 -138t118 -46q83 0 119.5 46t36.5 138v537q0 92 -36.5 138t-119.5 46q-81 0 -118 -46t-37 -138v-537z" />
<glyph unicode="p" horiz-adv-x="729" d="M106 -258v1319h107v-141q23 71 80 116t137 45q102 0 158.5 -62t56.5 -216v-545q0 -154 -56.5 -216t-158.5 -62q-73 0 -128 38.5t-81 100.5v-377h-115zM221 285q0 -84 50.5 -145.5t123.5 -61.5q71 0 104 39t33 143v541q0 104 -33 143t-104 39q-73 0 -123.5 -61.5 t-50.5 -145.5v-491z" />
<glyph unicode="q" horiz-adv-x="729" d="M84 258v545q0 153 57 215.5t158 62.5q77 0 134 -42.5t83 -110.5l29 133h78v-1319h-113v377q-28 -61 -83.5 -100t-127.5 -39q-101 0 -158 62.5t-57 215.5zM197 260q0 -104 33.5 -143t105.5 -39q73 0 123.5 61.5t50.5 145.5v491q0 84 -50.5 145.5t-123.5 61.5 q-72 0 -105.5 -39t-33.5 -143v-541z" />
<glyph unicode="r" horiz-adv-x="667" d="M106 0v1061h107v-137q23 69 78.5 113t134.5 44q97 0 149 -61.5t52 -214.5v-262h-107v258q0 105 -30.5 143.5t-100.5 38.5q-72 0 -120 -61t-48 -146v-776h-115z" />
<glyph unicode="s" horiz-adv-x="663" d="M72 270v78h106v-88q0 -93 34 -139.5t116 -46.5q81 0 114 43t33 131v16q0 51 -22 90.5t-57.5 66t-78.5 51t-85.5 53t-78 63.5t-57.5 91t-22 128v2q0 272 258 272q129 0 194.5 -69t65.5 -221v-60h-107v70q0 94 -33.5 140t-115.5 46t-116 -43.5t-34 -130.5v-8 q0 -51 22.5 -91t58 -67t78.5 -52.5t86 -54.5t78.5 -64t58 -91t22.5 -127v-2q0 -143 -65.5 -209.5t-194.5 -66.5t-193.5 69t-64.5 221z" />
<glyph unicode="t" horiz-adv-x="446" d="M45 963v98h92v227h115v-227h166v-98h-166v-777q0 -55 19.5 -77.5t64.5 -22.5q55 0 82 8v-94q-40 -12 -101 -12q-95 0 -137.5 43.5t-42.5 146.5v785h-92z" />
<glyph unicode="u" horiz-adv-x="741" d="M96 258v803h113v-801q0 -104 33 -143t104 -39q73 0 123.5 61.5t50.5 145.5v776h115v-715q0 -148 3 -215.5t15 -130.5h-108q-14 51 -21 131q-24 -66 -81 -108.5t-132 -42.5q-102 0 -158.5 62t-56.5 216z" />
<glyph unicode="v" horiz-adv-x="659" d="M18 1061h115l146 -643q40 -176 55 -314q31 197 57 314l146 643h104l-242 -1061h-139z" />
<glyph unicode="w" horiz-adv-x="1042" d="M18 1061h115l127 -645q27 -132 39 -299q11 152 41 299l125 645h123l125 -645q30 -147 41 -299q8 117 41 299l125 645h104l-211 -1061h-129l-125 641q-11 52 -24.5 166.5t-14.5 122.5q-26 -216 -39 -289l-121 -641h-131z" />
<glyph unicode="x" horiz-adv-x="659" d="M18 0l240 555l-219 506h119l88 -209q62 -148 90 -227q28 79 90 227l88 209h104l-219 -506l242 -555h-119l-110 258q-45 105 -88 225q-63 -161 -91 -225l-110 -258h-105z" />
<glyph unicode="y" horiz-adv-x="659" d="M18 1061h115l146 -643q40 -176 55 -314q31 197 57 314l146 643h104l-262 -1155q-19 -94 -62.5 -139.5t-140.5 -45.5q-47 0 -86 13v92q33 -10 70 -10q49 0 72 21t34 73q3 14 3 31q0 27 -7 63z" />
<glyph unicode="z" horiz-adv-x="589" d="M41 0v86l387 877h-371v98h492v-86l-389 -877h389v-98h-508z" />
<glyph unicode="{" horiz-adv-x="468" d="M0 571v101h49q72 0 97.5 30t25.5 115q0 59 -20.5 166t-20.5 166q0 84 20.5 141.5t61 88.5t90 44t117.5 13h49v-95h-41q-99 0 -139.5 -41.5t-40.5 -152.5q0 -48 20.5 -155t20.5 -156q0 -170 -101 -215q101 -45 101 -213q0 -49 -20.5 -156.5t-20.5 -155.5q0 -110 40.5 -152 t139.5 -42h41v-95h-49q-67 0 -117.5 13.5t-90.5 44.5t-60.5 88.5t-20.5 140.5q0 58 20.5 166t20.5 166q0 85 -25.5 115t-97.5 30h-49z" />
<glyph unicode="|" horiz-adv-x="561" d="M227 -258v1692h107v-1692h-107z" />
<glyph unicode="}" horiz-adv-x="468" d="M0 -98h41q99 0 139.5 42t40.5 152q0 48 -20.5 155.5t-20.5 156.5q0 168 101 213q-101 45 -101 215q0 49 20.5 156t20.5 155q0 111 -40.5 152.5t-139.5 41.5h-41v95h49q68 0 117.5 -13t90 -44t61 -88.5t20.5 -141.5q0 -59 -20.5 -166t-20.5 -166q0 -85 25.5 -115t97.5 -30 h49v-101h-49q-72 0 -97.5 -30t-25.5 -115q0 -58 20.5 -166t20.5 -166q0 -83 -20.5 -140.5t-60.5 -88.5t-90.5 -44.5t-117.5 -13.5h-49v95z" />
<glyph unicode="~" d="M84 637v102q63 66 135 66q49 0 140 -39t135 -39q70 0 129 70v-103q-64 -67 -140 -67q-48 0 -138.5 40t-133.5 40q-68 0 -127 -70z" />
<glyph unicode="&#xa1;" horiz-adv-x="364" d="M119 246l35 565h53l37 -565v-525h-125v525zM121 954v201h119v-201h-119z" />
<glyph unicode="&#xa2;" d="M86 461v512q0 277 231 293v143h72v-143q229 -16 229 -293v-86h-106v98q0 92 -36.5 138t-119.5 46q-82 0 -118.5 -46t-36.5 -138v-536q0 -92 36.5 -138.5t118.5 -46.5t119 46.5t37 138.5v118h106v-106q0 -276 -229 -295v-141h-72v141q-231 16 -231 295z" />
<glyph unicode="&#xa3;" d="M76 0v94q86 31 131 100.5t51 188.5h-158v86h158q-5 66 -26 132t-46 121t-49 113.5t-40.5 133t-16.5 155.5v31q0 299 278 299q277 0 277 -307v-205h-113v215q0 96 -39 143.5t-121 47.5q-85 0 -123 -47t-38 -144v-35q0 -75 15 -143t37.5 -123.5t45.5 -110.5t41 -126.5 t22 -149.5h213v-86h-213q-13 -185 -139 -270h412v-113h-559z" />
<glyph unicode="&#xa4;" d="M53 477l119 111q-43 55 -43 129q0 75 43 127l-119 110l60 60l108 -117q62 45 131 45q71 0 133 -45l109 117l59 -60l-118 -110q43 -56 43 -127q0 -70 -43 -129l118 -111l-59 -57l-109 117q-62 -45 -133 -45q-69 0 -131 45l-108 -117zM203 717q0 -66 41.5 -109t107.5 -43 t109 43t43 109t-43 108.5t-109 42.5t-107.5 -42.5t-41.5 -108.5z" />
<glyph unicode="&#xa5;" d="M43 1434h117l129 -486q47 -179 71 -315q16 105 72 315l127 486h105l-238 -879h203v-74h-215v-164h215v-71h-215v-246h-117v246h-219v71h219v164h-219v74h203z" />
<glyph unicode="&#xa6;" horiz-adv-x="561" d="M227 -258v711h107v-711h-107zM227 723v711h107v-711h-107z" />
<glyph unicode="&#xa7;" horiz-adv-x="708" d="M72 690q0 83 34.5 144t98.5 90q-133 100 -133 258v2q0 130 74.5 200t205.5 70q133 0 207 -74.5t74 -222.5v-102h-115v110q0 191 -160 191q-84 0 -123.5 -44.5t-39.5 -121.5v-8q0 -53 24.5 -96t63.5 -72.5t86 -57t94 -58t86 -67.5t63.5 -93.5t24.5 -127.5 q0 -83 -35.5 -143.5t-101.5 -89.5q135 -101 135 -256v-2q0 -130 -75 -201.5t-204 -71.5q-134 0 -208 74.5t-74 222.5v105h114v-113q0 -190 162 -190q84 0 124 45t40 121v8q0 53 -24.5 96t-63.5 72.5t-86 57t-94 58.5t-86 67.5t-63.5 92.5t-24.5 127zM178 700q0 -27 6.5 -51 t15.5 -42.5t27 -38.5t31.5 -32.5t40 -30.5t41.5 -27t46.5 -27t45.5 -27q48 18 73 66.5t25 109.5q0 27 -6.5 51t-15.5 42.5t-27 38.5t-32 33t-40.5 30.5t-42 27t-47 27.5t-45.5 27q-46 -15 -71 -62t-25 -115z" />
<glyph unicode="&#xa8;" horiz-adv-x="561" d="M102 1200v164h109v-164h-109zM350 1200v164h109v-164h-109z" />
<glyph unicode="&#xa9;" horiz-adv-x="1275" d="M84 717q0 90 5.5 164t21 152t41 138t68 115t100 90.5t138.5 56.5t181 21t180.5 -21t137.5 -56.5t99.5 -90.5t68 -115t41 -138t21 -152t5.5 -164t-5.5 -164t-21 -152t-41 -138t-68 -115t-99.5 -90.5t-137.5 -56.5t-180.5 -21t-181 21t-138.5 56.5t-100 90.5t-68 115 t-41 138t-21 152t-5.5 164zM172 717q0 -82 4 -146t16 -135t32.5 -123t55.5 -102t83.5 -81t118 -50t157.5 -19q87 0 156.5 19t118 50t84 80.5t56 102t32.5 123.5t16 135t4 146t-4 146t-16 134.5t-32.5 123t-56 102t-84 81t-118 50t-156.5 18.5q-88 0 -157.5 -18.5t-118 -50 t-83.5 -81t-55.5 -102t-32.5 -123t-16 -134.5t-4 -146zM455 467v494q0 110 45.5 160t138.5 50t137.5 -49.5t44.5 -160.5v-97h-88v99q0 63 -21 92.5t-71 29.5t-71 -29.5t-21 -92.5v-498q0 -64 21 -93.5t71 -29.5t71 29.5t21 93.5v98h88v-96q0 -111 -45 -161t-137 -50 q-93 0 -138.5 50.5t-45.5 160.5z" />
<glyph unicode="&#xaa;" horiz-adv-x="520" d="M55 467v100h404v-100h-404zM55 883v4q0 53 16.5 94.5t42.5 67.5t57.5 46t63.5 35.5t58 30t42.5 35t16.5 45.5v2q0 63 -22.5 93t-73.5 30q-50 0 -71 -30t-21 -93v-37h-92v37q0 110 47 160.5t141 50.5t141.5 -50.5t47.5 -160.5v-332q0 -82 3 -116t15 -97h-86 q-13 23 -16 101q-15 -51 -57.5 -84t-96.5 -33q-156 0 -156 201zM156 893q0 -72 23 -96.5t67 -24.5q43 0 74.5 35t31.5 84v231q-17 -14 -48 -32t-53.5 -32.5t-46 -35.5t-36 -51t-12.5 -68v-10z" />
<glyph unicode="&#xab;" horiz-adv-x="720" d="M29 530l247 531h113l-248 -531l248 -530h-113zM332 530l248 531h112l-248 -531l248 -530h-112z" />
<glyph unicode="&#xac;" d="M84 664v104h539v-356h-105v252h-434z" />
<glyph unicode="&#xad;" horiz-adv-x="561" d="M74 477v103h413v-103h-413z" />
<glyph unicode="&#xae;" horiz-adv-x="1275" d="M84 717q0 90 5.5 164t21 152t41 138t68 115t100 90.5t138.5 56.5t181 21t180.5 -21t137.5 -56.5t99.5 -90.5t68 -115t41 -138t21 -152t5.5 -164t-5.5 -164t-21 -152t-41 -138t-68 -115t-99.5 -90.5t-137.5 -56.5t-180.5 -21t-181 21t-138.5 56.5t-100 90.5t-68 115 t-41 138t-21 152t-5.5 164zM172 717q0 -82 4 -146t16 -135t32.5 -123t55.5 -102t83.5 -81t118 -50t157.5 -19q87 0 156.5 19t118 50t84 80.5t56 102t32.5 123.5t16 135t4 146t-4 146t-16 134.5t-32.5 123t-56 102t-84 81t-118 50t-156.5 18.5q-88 0 -157.5 -18.5t-118 -50 t-83.5 -81t-55.5 -102t-32.5 -123t-16 -134.5t-4 -146zM449 274v883h196q87 0 139 -45.5t52 -146.5v-84q0 -142 -105 -170q105 -32 105 -170v-9q0 -108 3.5 -156.5t9 -63t23.5 -38.5h-110q-23 59 -23 193v78q0 58 -28 90.5t-78 32.5h-90v-394h-94zM543 754h96q53 0 76.5 28 t23.5 86v101q0 102 -100 102h-96v-317z" />
<glyph unicode="&#xaf;" horiz-adv-x="561" d="M70 1227v80h419v-80h-419z" />
<glyph unicode="&#xb0;" horiz-adv-x="528" d="M45 1196q0 92 63 154.5t154 62.5q93 0 157 -62.5t64 -154.5t-64.5 -155.5t-156.5 -63.5q-91 0 -154 63.5t-63 155.5zM135 1196q0 -55 36.5 -91t90.5 -36q56 0 93.5 36t37.5 91q0 54 -37.5 90.5t-93.5 36.5q-54 0 -90.5 -36.5t-36.5 -90.5z" />
<glyph unicode="&#xb1;" d="M84 381v102h217v211h-217v105h217v250h102v-250h220v-105h-220v-211h220v-102h-539z" />
<glyph unicode="&#xb2;" horiz-adv-x="522" d="M78 700v86q0 85 28.5 156t69 121.5t81 100t69 114t28.5 139.5v10q0 64 -22 93.5t-74 29.5q-50 0 -70 -29t-20 -94v-98h-90v98q0 111 46 161t138 50q94 0 142.5 -49.5t48.5 -158.5v-15q0 -85 -28.5 -154.5t-69.5 -119t-81.5 -97.5t-69 -112t-28.5 -141h273v-91h-371z" />
<glyph unicode="&#xb3;" horiz-adv-x="522" d="M72 891v82h90v-80q0 -64 22.5 -94.5t73.5 -30.5q50 0 72 30.5t22 94.5v125q0 63 -20.5 90t-73.5 27h-68v86h68q53 0 73.5 25t20.5 85v96q0 64 -22 94.5t-72 30.5q-51 0 -73.5 -30.5t-22.5 -94.5v-67h-90v70q0 109 48 158.5t142 49.5q93 0 141 -49.5t48 -158.5v-82 q0 -136 -103 -172q103 -33 103 -175v-110q0 -111 -48 -161t-141 -50q-94 0 -142 50t-48 161z" />
<glyph unicode="&#xb4;" horiz-adv-x="561" d="M150 1171l133 244h125l-185 -244h-73z" />
<glyph unicode="&#xb5;" horiz-adv-x="751" d="M106 -258v1319h115v-801q0 -104 33 -143t104 -39q73 0 123.5 61.5t50.5 145.5v776h113v-715q0 -146 4 -214t17 -132h-111q-15 52 -18 131q-24 -67 -81.5 -109t-133.5 -42q-58 0 -101 18v-256h-115z" />
<glyph unicode="&#xb6;" horiz-adv-x="864" d="M41 692v428q0 314 321 314h386v-1567h-103v1468h-164v-1468h-104v512h-15q-67 0 -119.5 13t-100.5 45.5t-74.5 97t-26.5 157.5z" />
<glyph unicode="&#xb7;" horiz-adv-x="352" d="M119 602v227h112v-227h-112z" />
<glyph unicode="&#xb8;" horiz-adv-x="561" d="M109 -160h73q-3 -42 18 -57.5t74 -15.5q48 0 68 15t20 46q0 33 -24.5 45.5t-93.5 11.5v115h49v-76q83 0 121.5 -20.5t38.5 -77.5q0 -52 -47.5 -78.5t-133.5 -26.5q-171 0 -163 119z" />
<glyph unicode="&#xb9;" horiz-adv-x="522" d="M170 1460v90h49q37 0 55.5 17t24.5 51h53v-918h-98v760h-84z" />
<glyph unicode="&#xba;" horiz-adv-x="520" d="M68 467v100h385v-100h-385zM68 895v348q0 111 47.5 161t144.5 50t145 -50.5t48 -160.5v-348q0 -112 -48 -162.5t-145 -50.5t-144.5 50.5t-47.5 162.5zM164 893q0 -64 22 -93.5t74 -29.5t74 29.5t22 93.5v350q0 64 -22 93.5t-74 29.5t-74 -29.5t-22 -93.5v-350z" />
<glyph unicode="&#xbb;" horiz-adv-x="720" d="M29 0l247 530l-247 531h112l248 -531l-248 -530h-112zM332 0l248 530l-248 531h112l248 -531l-248 -530h-112z" />
<glyph unicode="&#xbc;" horiz-adv-x="1042" d="M88 1276v90h49q37 0 55.5 17t24.5 51h53v-918h-98v760h-84zM195 0l559 1434h92l-559 -1434h-92zM580 213v74l241 631h115v-617h57v-88h-57v-213h-96v213h-260zM672 301h168v197q0 128 20 338q-36 -137 -104 -314z" />
<glyph unicode="&#xbd;" horiz-adv-x="1124" d="M88 1276v90h49q37 0 55.5 17t24.5 51h53v-918h-98v760h-84zM195 0l559 1434h92l-559 -1434h-92zM680 0v86q0 85 28.5 156t69 121.5t81 100t69 114t28.5 139.5v10q0 64 -22 93.5t-74 29.5q-50 0 -70 -29t-20 -94v-98h-90v98q0 111 46 161t138 50q94 0 142.5 -50t48.5 -159 v-14q0 -62 -15.5 -116t-39.5 -94t-53.5 -76.5t-59.5 -72.5t-54 -73.5t-39.5 -87t-15.5 -105.5h273v-90h-371z" />
<glyph unicode="&#xbe;" horiz-adv-x="1124" d="M72 707v81h90v-79q0 -64 22.5 -94.5t73.5 -30.5q50 0 72 30.5t22 94.5v125q0 63 -20.5 89.5t-73.5 26.5h-68v86h68q53 0 73.5 25.5t20.5 85.5v96q0 64 -22 94.5t-72 30.5q-51 0 -73.5 -30.5t-22.5 -94.5v-67h-90v69q0 109 48 159t142 50q189 0 189 -209v-82 q0 -136 -103 -172q103 -33 103 -174v-110q0 -111 -48 -161t-141 -50q-94 0 -142 50t-48 161zM276 0l560 1434h92l-559 -1434h-93zM662 213v74l241 631h115v-617h57v-88h-57v-213h-96v213h-260zM754 301h168v197q0 128 20 338q-36 -137 -104 -314z" />
<glyph unicode="&#xbf;" horiz-adv-x="612" d="M41 4v41q0 82 13.5 144.5t35.5 101t48.5 71l53 65t48.5 72t35.5 103.5t13.5 148v61h61v-98q0 -88 -11 -153t-28 -104t-38 -70t-42 -60.5t-38 -65t-28 -93.5t-11 -136v-39q0 -193 155 -193q156 0 156 193v239h106v-227q0 -303 -266 -303q-264 0 -264 303zM262 930v225h115 v-225h-115z" />
<glyph unicode="&#xc0;" horiz-adv-x="702" d="M25 0l247 1434h154l248 -1434h-125l-43 246h-328l-43 -246h-110zM176 1757h123l135 -244h-74zM197 354h288l-79 461q-36 202 -64 475q-25 -247 -66 -475z" />
<glyph unicode="&#xc1;" horiz-adv-x="702" d="M25 0l247 1434h154l248 -1434h-125l-43 246h-328l-43 -246h-110zM197 354h288l-79 461q-36 202 -64 475q-25 -247 -66 -475zM264 1513l133 244h125l-184 -244h-74z" />
<glyph unicode="&#xc2;" horiz-adv-x="702" d="M25 0l247 1434h154l248 -1434h-125l-43 246h-328l-43 -246h-110zM143 1513l164 244h90l162 -244h-76l-131 156l-131 -156h-78zM197 354h288l-79 461q-36 202 -64 475q-25 -247 -66 -475z" />
<glyph unicode="&#xc3;" horiz-adv-x="702" d="M25 0l247 1434h154l248 -1434h-125l-43 246h-328l-43 -246h-110zM131 1544q3 77 37 116.5t92 39.5q44 0 104.5 -35t88.5 -35q47 0 55 76h63q-3 -77 -37 -117.5t-92 -40.5q-43 0 -103 35t-89 35q-47 0 -55 -74h-64zM197 354h288l-79 461q-36 202 -64 475 q-25 -247 -66 -475z" />
<glyph unicode="&#xc4;" horiz-adv-x="702" d="M25 0l247 1434h154l248 -1434h-125l-43 246h-328l-43 -246h-110zM174 1542v164h109v-164h-109zM197 354h288l-79 461q-36 202 -64 475q-25 -247 -66 -475zM422 1542v164h108v-164h-108z" />
<glyph unicode="&#xc5;" horiz-adv-x="702" d="M25 0l247 1434h154l248 -1434h-125l-43 246h-328l-43 -246h-110zM197 354h288l-79 461q-36 202 -64 475q-25 -247 -66 -475zM211 1655q0 58 41 98.5t100 40.5q57 0 98.5 -40.5t41.5 -98.5t-41.5 -98.5t-98.5 -40.5q-59 0 -100 40.5t-41 98.5zM274 1655q0 -34 22 -56 t56 -22t55 22t21 56t-21 56t-55 22t-56 -22t-22 -56z" />
<glyph unicode="&#xc6;" horiz-adv-x="944" d="M8 0l365 1434h504v-111h-338v-520h305v-111h-305v-581h348v-111h-473v246h-232l-61 -246h-113zM211 354h203v469q0 139 12 447q-59 -291 -109 -492z" />
<glyph unicode="&#xc7;" horiz-adv-x="739" d="M84 301v832q0 321 291 321q289 0 289 -321v-201h-117v213q0 201 -170 201q-168 0 -168 -201v-856q0 -201 168 -201q170 0 170 201v254h117v-242q0 -318 -283 -321v-56q83 0 121.5 -20.5t38.5 -77.5q0 -52 -47.5 -78.5t-133.5 -26.5q-171 0 -163 119h73q-3 -42 18 -57.5 t74 -15.5q89 0 89 61q0 33 -25 45.5t-94 11.5v97q-248 22 -248 319z" />
<glyph unicode="&#xc8;" horiz-adv-x="647" d="M117 0v1434h463v-111h-338v-520h307v-111h-307v-581h348v-111h-473zM176 1757h123l135 -244h-74z" />
<glyph unicode="&#xc9;" horiz-adv-x="647" d="M117 0v1434h463v-111h-338v-520h307v-111h-307v-581h348v-111h-473zM262 1513l133 244h125l-184 -244h-74z" />
<glyph unicode="&#xca;" horiz-adv-x="647" d="M117 0v1434h463v-111h-338v-520h307v-111h-307v-581h348v-111h-473zM139 1513l164 244h90l162 -244h-76l-131 156l-131 -156h-78z" />
<glyph unicode="&#xcb;" horiz-adv-x="647" d="M117 0v1434h463v-111h-338v-520h307v-111h-307v-581h348v-111h-473zM170 1542v164h109v-164h-109zM418 1542v164h108v-164h-108z" />
<glyph unicode="&#xcc;" horiz-adv-x="350" d="M2 1757h123l135 -244h-74zM113 0v1434h125v-1434h-125z" />
<glyph unicode="&#xcd;" horiz-adv-x="350" d="M88 1513l133 244h125l-184 -244h-74zM113 0v1434h125v-1434h-125z" />
<glyph unicode="&#xce;" horiz-adv-x="350" d="M-33 1513l164 244h90l162 -244h-76l-131 156l-131 -156h-78zM113 0v1434h125v-1434h-125z" />
<glyph unicode="&#xcf;" horiz-adv-x="350" d="M-2 1542v164h108v-164h-108zM113 0v1434h125v-1434h-125zM246 1542v164h108v-164h-108z" />
<glyph unicode="&#xd0;" horiz-adv-x="788" d="M39 698v99h78v637h245q324 0 324 -318v-799q0 -317 -324 -317h-245v698h-78zM242 111h108q116 0 163.5 45t47.5 157v807q0 112 -47.5 157.5t-163.5 45.5h-108v-526h176v-99h-176v-587z" />
<glyph unicode="&#xd1;" horiz-adv-x="821" d="M113 0v1434h168l249 -844q14 -50 43.5 -169.5t38.5 -154.5q-12 312 -12 328v840h109v-1434h-131l-287 967q-14 50 -44 171.5t-38 151.5q12 -208 12 -327v-963h-108zM188 1544q3 77 37 116.5t92 39.5q44 0 104.5 -35t88.5 -35q47 0 55 76h64q-3 -77 -37 -117.5t-92 -40.5 q-43 0 -103.5 35t-89.5 35q-47 0 -55 -74h-64z" />
<glyph unicode="&#xd2;" horiz-adv-x="755" d="M84 301v832q0 321 293 321q295 0 295 -321v-832q0 -321 -295 -321q-293 0 -293 321zM203 1757h123l135 -244h-74zM209 289q0 -201 168 -201q170 0 170 201v856q0 201 -170 201q-168 0 -168 -201v-856z" />
<glyph unicode="&#xd3;" horiz-adv-x="755" d="M84 301v832q0 321 293 321q295 0 295 -321v-832q0 -321 -295 -321q-293 0 -293 321zM209 289q0 -201 168 -201q170 0 170 201v856q0 201 -170 201q-168 0 -168 -201v-856zM291 1513l133 244h125l-184 -244h-74z" />
<glyph unicode="&#xd4;" horiz-adv-x="755" d="M84 301v832q0 321 293 321q295 0 295 -321v-832q0 -321 -295 -321q-293 0 -293 321zM168 1513l164 244h90l162 -244h-76l-131 156l-131 -156h-78zM209 289q0 -201 168 -201q170 0 170 201v856q0 201 -170 201q-168 0 -168 -201v-856z" />
<glyph unicode="&#xd5;" horiz-adv-x="755" d="M84 301v832q0 321 293 321q295 0 295 -321v-832q0 -321 -295 -321q-293 0 -293 321zM156 1544q3 77 37 116.5t92 39.5q44 0 104 -35t88 -35q47 0 55 76h64q-3 -77 -37 -117.5t-92 -40.5q-43 0 -103.5 35t-89.5 35q-47 0 -55 -74h-63zM209 289q0 -201 168 -201 q170 0 170 201v856q0 201 -170 201q-168 0 -168 -201v-856z" />
<glyph unicode="&#xd6;" horiz-adv-x="755" d="M84 301v832q0 321 293 321q295 0 295 -321v-832q0 -321 -295 -321q-293 0 -293 321zM199 1542v164h108v-164h-108zM209 289q0 -201 168 -201q170 0 170 201v856q0 201 -170 201q-168 0 -168 -201v-856zM446 1542v164h109v-164h-109z" />
<glyph unicode="&#xd7;" d="M86 520l197 195l-197 194l74 72l192 -197l197 199l72 -74l-199 -194l199 -195l-72 -74l-199 197l-190 -192z" />
<glyph unicode="&#xd8;" horiz-adv-x="755" d="M84 301v832q0 321 293 321q102 0 170 -39l28 92l89 -26l-43 -138q51 -79 51 -210v-832q0 -321 -295 -321q-103 0 -168 36l-27 -90l-90 27l41 135q-49 76 -49 213zM209 319l299 973q-42 54 -131 54q-168 0 -168 -201v-826zM248 139q39 -51 129 -51q170 0 170 201v825z" />
<glyph unicode="&#xd9;" horiz-adv-x="780" d="M100 287v1147h125v-1158q0 -95 41 -141.5t129 -46.5q87 0 127.5 46.5t40.5 141.5v1158h117v-1147q0 -307 -289 -307q-291 0 -291 307zM217 1757h123l135 -244h-74z" />
<glyph unicode="&#xda;" horiz-adv-x="780" d="M100 287v1147h125v-1158q0 -95 41 -141.5t129 -46.5q87 0 127.5 46.5t40.5 141.5v1158h117v-1147q0 -307 -289 -307q-291 0 -291 307zM303 1513l133 244h125l-184 -244h-74z" />
<glyph unicode="&#xdb;" horiz-adv-x="780" d="M100 287v1147h125v-1158q0 -95 41 -141.5t129 -46.5q87 0 127.5 46.5t40.5 141.5v1158h117v-1147q0 -307 -289 -307q-291 0 -291 307zM180 1513l164 244h90l162 -244h-76l-131 156l-131 -156h-78z" />
<glyph unicode="&#xdc;" horiz-adv-x="780" d="M100 287v1147h125v-1158q0 -95 41 -141.5t129 -46.5q87 0 127.5 46.5t40.5 141.5v1158h117v-1147q0 -307 -289 -307q-291 0 -291 307zM211 1542v164h108v-164h-108zM459 1542v164h108v-164h-108z" />
<glyph unicode="&#xdd;" horiz-adv-x="710" d="M29 1434h125l135 -486q62 -234 76 -315q15 96 73 315l135 486h113l-266 -934v-500h-125v492zM268 1513l133 244h125l-184 -244h-74z" />
<glyph unicode="&#xde;" horiz-adv-x="718" d="M117 0v1434h125v-144h114q322 0 322 -317v-264q0 -318 -322 -318h-114v-391h-125zM242 502h102q114 0 161.5 45.5t47.5 157.5v272q0 112 -47.5 157.5t-161.5 45.5h-102v-678z" />
<glyph unicode="&#xdf;" horiz-adv-x="720" d="M106 0v1165q0 152 69 220.5t202 68.5q132 0 200 -68.5t68 -220.5v-53q0 -220 -170 -260q87 -22 128.5 -86t41.5 -176v-367q0 -122 -53 -180.5t-172 -58.5q-51 0 -105 16v96q49 -14 86 -14q76 0 103.5 35t27.5 121v383q0 182 -184 182h-33v94h33q184 0 184 180v94 q0 92 -36.5 138.5t-118.5 46.5t-119 -46.5t-37 -138.5v-1171h-115z" />
<glyph unicode="&#xe0;" horiz-adv-x="702" d="M70 246v18q0 77 23.5 136.5t61 96.5t82.5 66t90 51.5t82.5 45t61 54t23.5 72.5v13q0 93 -34 138.5t-112 45.5q-80 0 -114.5 -45.5t-34.5 -138.5v-74h-107v61q0 153 65 224t193 71t193 -71t65 -224v-440q0 -242 19 -346h-109q-15 54 -18 135q-23 -67 -80.5 -111 t-134.5 -44q-49 0 -86 12t-67 40.5t-46 82.5t-16 131zM178 1415h123l135 -244h-74zM182 250q0 -101 32.5 -137.5t104.5 -36.5q73 0 124 61.5t51 145.5v325q-27 -23 -74 -49t-84.5 -47.5t-74.5 -52.5t-58 -78t-21 -109v-22z" />
<glyph unicode="&#xe1;" horiz-adv-x="702" d="M70 246v18q0 77 23.5 136.5t61 96.5t82.5 66t90 51.5t82.5 45t61 54t23.5 72.5v13q0 93 -34 138.5t-112 45.5q-80 0 -114.5 -45.5t-34.5 -138.5v-74h-107v61q0 153 65 224t193 71t193 -71t65 -224v-440q0 -242 19 -346h-109q-15 54 -18 135q-23 -67 -80.5 -111 t-134.5 -44q-49 0 -86 12t-67 40.5t-46 82.5t-16 131zM182 250q0 -101 32.5 -137.5t104.5 -36.5q73 0 124 61.5t51 145.5v325q-27 -23 -74 -49t-84.5 -47.5t-74.5 -52.5t-58 -78t-21 -109v-22zM264 1171l133 244h125l-184 -244h-74z" />
<glyph unicode="&#xe2;" horiz-adv-x="702" d="M70 246v18q0 77 23.5 136.5t61 96.5t82.5 66t90 51.5t82.5 45t61 54t23.5 72.5v13q0 93 -34 138.5t-112 45.5q-80 0 -114.5 -45.5t-34.5 -138.5v-74h-107v61q0 153 65 224t193 71t193 -71t65 -224v-440q0 -242 19 -346h-109q-15 54 -18 135q-23 -67 -80.5 -111 t-134.5 -44q-49 0 -86 12t-67 40.5t-46 82.5t-16 131zM141 1171l164 244h90l162 -244h-76l-131 156l-131 -156h-78zM182 250q0 -101 32.5 -137.5t104.5 -36.5q73 0 124 61.5t51 145.5v325q-27 -23 -74 -49t-84.5 -47.5t-74.5 -52.5t-58 -78t-21 -109v-22z" />
<glyph unicode="&#xe3;" horiz-adv-x="702" d="M70 246v18q0 77 23.5 136.5t61 96.5t82.5 66t90 51.5t82.5 45t61 54t23.5 72.5v13q0 93 -34 138.5t-112 45.5q-80 0 -114.5 -45.5t-34.5 -138.5v-74h-107v61q0 153 65 224t193 71t193 -71t65 -224v-440q0 -242 19 -346h-109q-15 54 -18 135q-23 -67 -80.5 -111 t-134.5 -44q-49 0 -86 12t-67 40.5t-46 82.5t-16 131zM129 1202q3 77 37 116.5t92 39.5q44 0 104.5 -35t88.5 -35q47 0 55 76h63q-3 -77 -37 -117.5t-92 -40.5q-43 0 -103 35t-89 35q-47 0 -55 -74h-64zM182 250q0 -101 32.5 -137.5t104.5 -36.5q73 0 124 61.5t51 145.5v325 q-27 -23 -74 -49t-84.5 -47.5t-74.5 -52.5t-58 -78t-21 -109v-22z" />
<glyph unicode="&#xe4;" horiz-adv-x="702" d="M70 246v18q0 77 23.5 136.5t61 96.5t82.5 66t90 51.5t82.5 45t61 54t23.5 72.5v13q0 93 -34 138.5t-112 45.5q-80 0 -114.5 -45.5t-34.5 -138.5v-74h-107v61q0 153 65 224t193 71t193 -71t65 -224v-440q0 -242 19 -346h-109q-15 54 -18 135q-23 -67 -80.5 -111 t-134.5 -44q-49 0 -86 12t-67 40.5t-46 82.5t-16 131zM172 1200v164h109v-164h-109zM182 250q0 -101 32.5 -137.5t104.5 -36.5q73 0 124 61.5t51 145.5v325q-27 -23 -74 -49t-84.5 -47.5t-74.5 -52.5t-58 -78t-21 -109v-22zM420 1200v164h108v-164h-108z" />
<glyph unicode="&#xe5;" horiz-adv-x="702" d="M70 246v18q0 77 23.5 136.5t61 96.5t82.5 66t90 51.5t82.5 45t61 54t23.5 72.5v13q0 93 -34 138.5t-112 45.5q-80 0 -114.5 -45.5t-34.5 -138.5v-74h-107v61q0 153 65 224t193 71t193 -71t65 -224v-440q0 -242 19 -346h-109q-15 54 -18 135q-23 -67 -80.5 -111 t-134.5 -44q-49 0 -86 12t-67 40.5t-46 82.5t-16 131zM182 250q0 -101 32.5 -137.5t104.5 -36.5q73 0 124 61.5t51 145.5v325q-27 -23 -74 -49t-84.5 -47.5t-74.5 -52.5t-58 -78t-21 -109v-22zM209 1313q0 58 41 98.5t100 40.5q57 0 98 -40.5t41 -98.5t-41 -98.5t-98 -40.5 q-59 0 -100 40.5t-41 98.5zM272 1313q0 -34 22 -56t56 -22t55 22t21 56t-21 56t-55 22t-56 -22t-22 -56z" />
<glyph unicode="&#xe6;" horiz-adv-x="1103" d="M70 246v18q0 77 23.5 136.5t61 96.5t82.5 66t90 51.5t82.5 45t61 54t23.5 72.5v13q0 91 -34.5 137.5t-113.5 46.5q-82 0 -114.5 -45.5t-32.5 -140.5v-72h-107v61q0 154 61.5 224.5t186.5 70.5q158 0 211 -118q56 118 221 118q127 0 190.5 -70.5t63.5 -224.5v-280h-418 v-244q0 -92 36.5 -138t119.5 -46t119.5 46t36.5 138v94h106v-82q0 -153 -67.5 -223.5t-198.5 -70.5q-207 0 -254 178q-18 -76 -78 -127t-143 -51q-49 0 -86 12t-67 40.5t-46 82.5t-16 131zM182 250q0 -101 32.5 -137.5t104.5 -36.5q73 0 124 61.5t51 145.5v325 q-27 -23 -74 -49t-84.5 -47.5t-74.5 -52.5t-58 -78t-21 -109v-22zM608 602h312v197q0 93 -36.5 138.5t-119.5 45.5q-82 0 -119 -45.5t-37 -138.5v-197z" />
<glyph unicode="&#xe7;" horiz-adv-x="688" d="M84 274v512q0 153 67.5 224t198.5 71q130 0 197 -71t67 -224v-86h-106v99q0 92 -36.5 138t-119.5 46q-81 0 -118 -46t-37 -138v-537q0 -92 37 -138t118 -46q83 0 119.5 46t36.5 138v119h106v-107q0 -151 -65.5 -221.5t-192.5 -72.5v-56q83 0 121.5 -20.5t38.5 -77.5 q0 -52 -47 -78.5t-133 -26.5q-79 0 -123.5 27t-40.5 92h74q-3 -42 18 -57.5t74 -15.5q48 0 68 15t20 46q0 33 -25 45.5t-94 11.5v97q-223 22 -223 292z" />
<glyph unicode="&#xe8;" horiz-adv-x="692" d="M84 274v512q0 153 67.5 224t198.5 71q130 0 197 -71t67 -224v-280h-417v-244q0 -92 37 -138t118 -46q83 0 119.5 46t36.5 138v94h106v-82q0 -153 -67 -223.5t-197 -70.5q-131 0 -198.5 70.5t-67.5 223.5zM178 1415h123l135 -244h-74zM197 602h311v197q0 92 -36.5 138 t-119.5 46q-81 0 -118 -46t-37 -138v-197z" />
<glyph unicode="&#xe9;" horiz-adv-x="692" d="M84 274v512q0 153 67.5 224t198.5 71q130 0 197 -71t67 -224v-280h-417v-244q0 -92 37 -138t118 -46q83 0 119.5 46t36.5 138v94h106v-82q0 -153 -67 -223.5t-197 -70.5q-131 0 -198.5 70.5t-67.5 223.5zM197 602h311v197q0 92 -36.5 138t-119.5 46q-81 0 -118 -46 t-37 -138v-197zM266 1171l133 244h125l-184 -244h-74z" />
<glyph unicode="&#xea;" horiz-adv-x="692" d="M84 274v512q0 153 67.5 224t198.5 71q130 0 197 -71t67 -224v-280h-417v-244q0 -92 37 -138t118 -46q83 0 119.5 46t36.5 138v94h106v-82q0 -153 -67 -223.5t-197 -70.5q-131 0 -198.5 70.5t-67.5 223.5zM143 1171l164 244h90l162 -244h-76l-131 156l-131 -156h-78z M197 602h311v197q0 92 -36.5 138t-119.5 46q-81 0 -118 -46t-37 -138v-197z" />
<glyph unicode="&#xeb;" horiz-adv-x="692" d="M84 274v512q0 153 67.5 224t198.5 71q130 0 197 -71t67 -224v-280h-417v-244q0 -92 37 -138t118 -46q83 0 119.5 46t36.5 138v94h106v-82q0 -153 -67 -223.5t-197 -70.5q-131 0 -198.5 70.5t-67.5 223.5zM174 1200v164h109v-164h-109zM197 602h311v197q0 92 -36.5 138 t-119.5 46q-81 0 -118 -46t-37 -138v-197zM422 1200v164h108v-164h-108z" />
<glyph unicode="&#xec;" horiz-adv-x="327" d="M-8 1415h123l135 -244h-74zM106 0v1061h115v-1061h-115z" />
<glyph unicode="&#xed;" horiz-adv-x="327" d="M78 1171l133 244h125l-184 -244h-74zM106 0v1061h115v-1061h-115z" />
<glyph unicode="&#xee;" horiz-adv-x="327" d="M-45 1171l164 244h90l162 -244h-76l-131 156l-131 -156h-78zM106 0v1061h115v-1061h-115z" />
<glyph unicode="&#xef;" horiz-adv-x="327" d="M-14 1200v164h108v-164h-108zM106 0v1061h115v-1061h-115zM233 1200v164h109v-164h-109z" />
<glyph unicode="&#xf0;" horiz-adv-x="716" d="M84 274v529q0 154 56.5 216t158.5 62q72 0 126.5 -38.5t82.5 -100.5v145q0 125 -37 181l-113 -113l-45 47l113 111q-45 26 -121 26h-57l20 95h51q110 0 183 -45l45 45h88l-86 -86q74 -86 74 -258v-816q0 -294 -271 -294q-131 0 -199.5 70.5t-68.5 223.5zM197 262 q0 -92 37 -138t118 -46q83 0 119.5 46t36.5 138v514q0 84 -50.5 145.5t-123.5 61.5q-71 0 -104 -39t-33 -143v-539z" />
<glyph unicode="&#xf1;" horiz-adv-x="741" d="M106 0v1061h107v-141q23 71 80 116t137 45q102 0 158.5 -62t56.5 -216v-803h-113v801q0 104 -33 143t-104 39q-73 0 -123.5 -61.5t-50.5 -145.5v-776h-115zM150 1202q3 77 37 116.5t92 39.5q44 0 104 -35t88 -35q47 0 55 76h64q-3 -77 -37 -117.5t-92 -40.5 q-43 0 -103.5 35t-89.5 35q-47 0 -55 -74h-63z" />
<glyph unicode="&#xf2;" d="M84 274v512q0 295 268 295q271 0 271 -295v-512q0 -294 -271 -294q-131 0 -199.5 70.5t-68.5 223.5zM178 1415h123l135 -244h-74zM197 262q0 -92 37 -138t118 -46q83 0 119.5 46t36.5 138v537q0 92 -36.5 138t-119.5 46q-81 0 -118 -46t-37 -138v-537z" />
<glyph unicode="&#xf3;" d="M84 274v512q0 295 268 295q271 0 271 -295v-512q0 -294 -271 -294q-131 0 -199.5 70.5t-68.5 223.5zM197 262q0 -92 37 -138t118 -46q83 0 119.5 46t36.5 138v537q0 92 -36.5 138t-119.5 46q-81 0 -118 -46t-37 -138v-537zM266 1171l133 244h125l-184 -244h-74z" />
<glyph unicode="&#xf4;" d="M84 274v512q0 295 268 295q271 0 271 -295v-512q0 -294 -271 -294q-131 0 -199.5 70.5t-68.5 223.5zM143 1171l164 244h90l162 -244h-76l-131 156l-131 -156h-78zM197 262q0 -92 37 -138t118 -46q83 0 119.5 46t36.5 138v537q0 92 -36.5 138t-119.5 46q-81 0 -118 -46 t-37 -138v-537z" />
<glyph unicode="&#xf5;" d="M84 274v512q0 295 268 295q271 0 271 -295v-512q0 -294 -271 -294q-131 0 -199.5 70.5t-68.5 223.5zM131 1202q3 77 37 116.5t92 39.5q44 0 104.5 -35t88.5 -35q47 0 55 76h63q-3 -77 -37 -117.5t-92 -40.5q-43 0 -103 35t-89 35q-47 0 -55 -74h-64zM197 262 q0 -92 37 -138t118 -46q83 0 119.5 46t36.5 138v537q0 92 -36.5 138t-119.5 46q-81 0 -118 -46t-37 -138v-537z" />
<glyph unicode="&#xf6;" d="M84 274v512q0 295 268 295q271 0 271 -295v-512q0 -294 -271 -294q-131 0 -199.5 70.5t-68.5 223.5zM174 1200v164h109v-164h-109zM197 262q0 -92 37 -138t118 -46q83 0 119.5 46t36.5 138v537q0 92 -36.5 138t-119.5 46q-81 0 -118 -46t-37 -138v-537zM422 1200v164h108 v-164h-108z" />
<glyph unicode="&#xf7;" d="M84 664v104h539v-104h-539zM254 455q0 43 28.5 71.5t69.5 28.5q43 0 71 -28.5t28 -71.5t-28 -71t-71 -28q-42 0 -70 28t-28 71zM254 963q0 42 28 70t70 28q43 0 71 -27.5t28 -70.5t-28 -72t-71 -29q-41 0 -69.5 29t-28.5 72z" />
<glyph unicode="&#xf8;" d="M84 -47l47 123q-47 71 -47 198v512q0 295 268 295q98 0 156 -34l37 94l78 -33l-50 -125q50 -71 50 -197v-512q0 -294 -271 -294q-92 0 -153 34l-37 -94zM197 231l270 711q-38 41 -115 41q-81 0 -118 -46t-37 -138v-568zM238 119q41 -41 114 -41q83 0 119.5 46t36.5 138 v559z" />
<glyph unicode="&#xf9;" horiz-adv-x="741" d="M96 258v803h113v-801q0 -104 33 -143t104 -39q73 0 123.5 61.5t50.5 145.5v776h115v-715q0 -148 3 -215.5t15 -130.5h-108q-14 51 -21 131q-24 -66 -81 -108.5t-132 -42.5q-102 0 -158.5 62t-56.5 216zM197 1415h122l136 -244h-74z" />
<glyph unicode="&#xfa;" horiz-adv-x="741" d="M96 258v803h113v-801q0 -104 33 -143t104 -39q73 0 123.5 61.5t50.5 145.5v776h115v-715q0 -148 3 -215.5t15 -130.5h-108q-14 51 -21 131q-24 -66 -81 -108.5t-132 -42.5q-102 0 -158.5 62t-56.5 216zM283 1171l133 244h125l-185 -244h-73z" />
<glyph unicode="&#xfb;" horiz-adv-x="741" d="M96 258v803h113v-801q0 -104 33 -143t104 -39q73 0 123.5 61.5t50.5 145.5v776h115v-715q0 -148 3 -215.5t15 -130.5h-108q-14 51 -21 131q-24 -66 -81 -108.5t-132 -42.5q-102 0 -158.5 62t-56.5 216zM162 1171l164 244h90l162 -244h-76l-131 156l-131 -156h-78z" />
<glyph unicode="&#xfc;" horiz-adv-x="741" d="M96 258v803h113v-801q0 -104 33 -143t104 -39q73 0 123.5 61.5t50.5 145.5v776h115v-715q0 -148 3 -215.5t15 -130.5h-108q-14 51 -21 131q-24 -66 -81 -108.5t-132 -42.5q-102 0 -158.5 62t-56.5 216zM193 1200v164h108v-164h-108zM440 1200v164h109v-164h-109z" />
<glyph unicode="&#xfd;" horiz-adv-x="659" d="M18 1061h115l146 -643q40 -176 55 -314q31 197 57 314l146 643h104l-262 -1155q-19 -94 -62.5 -139.5t-140.5 -45.5q-47 0 -86 13v92q33 -10 70 -10q49 0 72 21t34 73q7 35 -4 94zM231 1171l134 244h124l-184 -244h-74z" />
<glyph unicode="&#xfe;" horiz-adv-x="729" d="M106 -258v1692h115v-492q26 61 81.5 100t127.5 39q102 0 158.5 -62t56.5 -216v-545q0 -154 -56.5 -216t-158.5 -62q-73 0 -128 38.5t-81 100.5v-377h-115zM221 285q0 -84 50.5 -145.5t123.5 -61.5q71 0 104 39t33 143v541q0 104 -33 143t-104 39q-73 0 -123.5 -61.5 t-50.5 -145.5v-491z" />
<glyph unicode="&#xff;" horiz-adv-x="659" d="M18 1061h115l146 -643q40 -176 55 -314q31 197 57 314l146 643h104l-262 -1155q-19 -94 -62.5 -139.5t-140.5 -45.5q-47 0 -86 13v92q33 -10 70 -10q49 0 72 21t34 73q7 35 -4 94zM158 1200v164h108v-164h-108zM406 1200v164h108v-164h-108z" />
<glyph unicode="&#x152;" horiz-adv-x="1077" d="M102 317v799q0 318 322 318h586v-111h-338v-520h305v-111h-305v-581h348v-111h-596q-322 0 -322 317zM227 313q0 -112 47 -157t162 -45h111v1212h-111q-114 0 -161.5 -45.5t-47.5 -157.5v-807z" />
<glyph unicode="&#x153;" horiz-adv-x="1120" d="M84 274v512q0 153 65.5 224t194.5 71q167 0 223 -129q50 129 221 129q127 0 190.5 -70.5t63.5 -224.5v-280h-417v-244q0 -92 37 -138t118 -46q83 0 119.5 46t36.5 138v94h106v-82q0 -154 -63.5 -224t-190.5 -70q-172 0 -221 126q-55 -126 -223 -126q-129 0 -194.5 70.5 t-65.5 223.5zM197 262q0 -92 37 -138t120 -46q81 0 118.5 46t37.5 138v539q0 91 -37 136.5t-119 45.5q-83 0 -120 -45t-37 -137v-539zM625 602h311v199q0 92 -36.5 137t-119.5 45q-81 0 -118 -45.5t-37 -136.5v-199z" />
<glyph unicode="&#x178;" horiz-adv-x="710" d="M29 1434h125l135 -486q62 -234 76 -315q15 96 73 315l135 486h113l-266 -934v-500h-125v492zM176 1542v164h109v-164h-109zM424 1542v164h108v-164h-108z" />
<glyph unicode="&#x2c6;" horiz-adv-x="561" d="M72 1171l164 244h90l161 -244h-75l-131 156l-131 -156h-78z" />
<glyph unicode="&#x2dc;" horiz-adv-x="561" d="M59 1202q3 77 37 116.5t92 39.5q44 0 104.5 -35t88.5 -35q47 0 55 76h64q-3 -77 -37 -117.5t-92 -40.5q-43 0 -103.5 35t-89.5 35q-47 0 -55 -74h-64z" />
<glyph unicode="&#x2000;" horiz-adv-x="897" />
<glyph unicode="&#x2001;" horiz-adv-x="1794" />
<glyph unicode="&#x2002;" horiz-adv-x="897" />
<glyph unicode="&#x2003;" horiz-adv-x="1794" />
<glyph unicode="&#x2004;" horiz-adv-x="598" />
<glyph unicode="&#x2005;" horiz-adv-x="448" />
<glyph unicode="&#x2006;" horiz-adv-x="299" />
<glyph unicode="&#x2007;" horiz-adv-x="299" />
<glyph unicode="&#x2008;" horiz-adv-x="224" />
<glyph unicode="&#x2009;" horiz-adv-x="358" />
<glyph unicode="&#x200a;" horiz-adv-x="99" />
<glyph unicode="&#x2010;" horiz-adv-x="561" d="M74 477v103h413v-103h-413z" />
<glyph unicode="&#x2011;" horiz-adv-x="561" d="M74 477v103h413v-103h-413z" />
<glyph unicode="&#x2012;" horiz-adv-x="561" d="M74 477v103h413v-103h-413z" />
<glyph unicode="&#x2013;" horiz-adv-x="1024" d="M0 479v103h1024v-103h-1024z" />
<glyph unicode="&#x2014;" horiz-adv-x="2048" d="M0 479v103h2048v-103h-2048z" />
<glyph unicode="&#x2018;" horiz-adv-x="352" d="M121 1010v227l125 197l14 -9l-82 -188h55v-227h-112z" />
<glyph unicode="&#x2019;" horiz-adv-x="352" d="M92 1018l82 188h-55v228h112v-228l-125 -196z" />
<glyph unicode="&#x201a;" horiz-adv-x="352" d="M92 -188l82 188h-55v227h112v-227l-125 -197z" />
<glyph unicode="&#x201c;" horiz-adv-x="638" d="M121 1010v227l125 197l14 -9l-82 -188h55v-227h-112zM408 1010v227l124 197l15 -9l-82 -188h55v-227h-112z" />
<glyph unicode="&#x201d;" horiz-adv-x="638" d="M92 1018l82 188h-55v228h112v-228l-125 -196zM377 1018l82 188h-56v228h113v-228l-125 -196z" />
<glyph unicode="&#x201e;" horiz-adv-x="638" d="M92 -188l82 188h-55v227h112v-227l-125 -197zM377 -188l82 188h-56v227h113v-227l-125 -197z" />
<glyph unicode="&#x2022;" horiz-adv-x="622" d="M88 717q0 92 64.5 157.5t156.5 65.5t157.5 -65.5t65.5 -157.5t-65.5 -156.5t-157.5 -64.5t-156.5 64.5t-64.5 156.5z" />
<glyph unicode="&#x2026;" horiz-adv-x="923" d="M119 0v227h112v-227h-112zM403 0v227h113v-227h-113zM688 0v227h113v-227h-113z" />
<glyph unicode="&#x202f;" horiz-adv-x="358" />
<glyph unicode="&#x2039;" horiz-adv-x="417" d="M29 530l247 531h113l-248 -531l248 -530h-113z" />
<glyph unicode="&#x203a;" horiz-adv-x="417" d="M29 0l247 530l-247 531h112l248 -531l-248 -530h-112z" />
<glyph unicode="&#x205f;" horiz-adv-x="448" />
<glyph unicode="&#x20ac;" d="M0 569v70h82v156h-82v69h84v295q0 295 268 295q271 0 271 -295v-110h-115v122q0 92 -37 138.5t-119 46.5q-81 0 -118 -46.5t-37 -138.5v-307h426v-69h-426v-156h426v-70h-426v-307q0 -92 37 -138t118 -46q83 0 119.5 46t36.5 138v123h115v-111q0 -294 -271 -294 q-131 0 -199.5 70.5t-68.5 223.5v295h-84z" />
<glyph unicode="&#x2122;" horiz-adv-x="909" d="M0 1350v84h303v-84h-104v-664h-93v664h-106zM379 686v748h135l57 -318q20 -102 37 -258q12 139 33 258l57 318h136v-748h-89v375q0 55 3.5 164.5t3.5 120.5q-8 -79 -47 -285l-66 -375h-76l-67 375q-8 51 -24.5 150l-22.5 135q8 -176 8 -285v-375h-78z" />
<glyph unicode="&#xe000;" horiz-adv-x="1064" d="M0 0v1065h1065v-1065h-1065z" />
</font>
</defs>
</svg>
