<?xml version="1.0" standalone="no"?>
<!DOCTYPE svg PUBLIC "-//W3C//DTD SVG 1.1//EN" "http://www.w3.org/Graphics/SVG/1.1/DTD/svg11.dtd" >
<svg xmlns="http://www.w3.org/2000/svg">
<metadata></metadata>
<defs>
<font id="rama_gothic_e_regularregular" horiz-adv-x="735" >
<font-face units-per-em="2048" ascent="1638" descent="-410" />
<missing-glyph horiz-adv-x="374" />
<glyph unicode="&#xfb01;" horiz-adv-x="827" d="M37 926v135h92v153q0 126 55.5 184t175.5 58q74 0 129 -22v-127q-43 18 -100 18t-81.5 -29.5t-24.5 -103.5v-131h206v-135h-206v-926h-154v926h-92zM573 0v1061h156v-1061h-156zM573 1241v193h156v-193h-156z" />
<glyph unicode="&#xfb02;" horiz-adv-x="827" d="M37 926v135h92v153q0 126 55.5 184t175.5 58q74 0 129 -22v-127q-43 18 -100 18t-81.5 -29.5t-24.5 -103.5v-131h206v-135h-206v-926h-154v926h-92zM573 0v1434h156v-1434h-156z" />
<glyph horiz-adv-x="2048" />
<glyph horiz-adv-x="2048" />
<glyph unicode="&#xd;" horiz-adv-x="2048" />
<glyph unicode=" "  horiz-adv-x="374" />
<glyph unicode="&#x09;" horiz-adv-x="374" />
<glyph unicode="&#xa0;" horiz-adv-x="374" />
<glyph unicode="!" horiz-adv-x="387" d="M106 913v521h175v-521l-43 -563h-88zM111 0v219h165v-219h-165z" />
<glyph unicode="&#x22;" horiz-adv-x="675" d="M106 1198v236h156v-236l-26 -473h-101zM416 1198v236h155v-236l-26 -473h-101z" />
<glyph unicode="#" d="M12 381l13 125h110l43 422h-106l12 125h109l40 381h117l-39 -381h183l41 381h116l-39 -381h111l-12 -125h-113l-43 -422h111l-13 -125h-110l-41 -381h-117l39 381h-184l-39 -381h-117l39 381h-111zM254 506h182l45 422h-184z" />
<glyph unicode="$" d="M63 334v184h156v-205q0 -84 34 -125t107 -41q74 0 108 41t34 125v27q0 71 -24 128.5t-63 98t-85.5 77.5t-93.5 79t-86 91.5t-63 125t-24 170.5v4q0 294 265 316v102h75v-102q267 -19 267 -330v-176h-158v194q0 86 -33 127t-106 41q-75 0 -108.5 -41t-33.5 -127v-8 q0 -71 24 -128.5t63 -98t85.5 -77.5t93.5 -79t86 -91.5t63 -125t24 -170.5v-23q0 -148 -68.5 -227t-198.5 -88v-100h-75v100q-265 19 -265 332z" />
<glyph unicode="%" horiz-adv-x="1269" d="M61 715v520q0 221 211 221q209 0 209 -221v-520q0 -221 -209 -221q-211 0 -211 221zM186 707q0 -105 86 -105q84 0 84 105v536q0 103 -84 103q-86 0 -86 -103v-536zM285 0l583 1434h117l-584 -1434h-116zM788 199v520q0 221 211 221q209 0 209 -221v-520 q0 -222 -209 -222q-100 0 -155.5 54t-55.5 168zM913 190q0 -104 86 -104q84 0 84 104v537q0 102 -84 102q-45 0 -65.5 -25t-20.5 -77v-537z" />
<glyph unicode="&#x26;" horiz-adv-x="958" d="M39 541q0 88 41.5 155.5t122.5 126.5l69 51q-77 197 -77 328q0 107 62 180.5t177 73.5q118 0 174 -64.5t56 -172.5q0 -101 -47 -180t-152 -160q208 -504 235 -619q62 121 62 330v256h135v-240q0 -290 -115 -456q29 -29 82 -29q45 0 72 12v-133q-46 -16 -107 -16 q-104 0 -167 49q-95 -56 -203 -56q-42 0 -71 3.5t-63.5 16t-61.5 36t-56.5 64.5t-56.5 100l-56 120q-55 118 -55 224zM201 578q0 -83 41 -166l71 -154q41 -88 77 -116.5t85 -28.5q62 0 113 26l-269 625l-43 -33q-75 -60 -75 -153zM360 1212q0 -40 8.5 -79t24.5 -85.5 t21 -64.5q70 60 98.5 116t28.5 120q0 120 -90 120q-91 0 -91 -127z" />
<glyph unicode="'" horiz-adv-x="368" d="M106 1198v236h156v-236l-26 -473h-101z" />
<glyph unicode="(" horiz-adv-x="456" d="M76 154v940q0 340 309 340h72v-123h-51q-93 0 -131.5 -46.5t-38.5 -154.5v-973q0 -108 38.5 -154t131.5 -46h51v-123h-72q-309 0 -309 340z" />
<glyph unicode=")" horiz-adv-x="456" d="M0 -63h51q93 0 131.5 46t38.5 154v973q0 108 -38.5 154.5t-131.5 46.5h-51v123h72q309 0 309 -340v-940q0 -340 -309 -340h-72v123z" />
<glyph unicode="*" horiz-adv-x="786" d="M2 856l305 160l-305 158l59 102l287 -184l-14 342h119l-17 -342l289 184l59 -102l-305 -158l305 -160l-59 -100l-289 182l17 -342h-119l14 342l-287 -182z" />
<glyph unicode="+" d="M76 649v133h223v262h135v-262h225v-133h-225v-264h-135v264h-223z" />
<glyph unicode="," horiz-adv-x="368" d="M86 -197l98 197h-78v264h154v-264l-158 -209z" />
<glyph unicode="-" horiz-adv-x="569" d="M68 459v139h434v-139h-434z" />
<glyph unicode="." horiz-adv-x="368" d="M106 0v264h154v-264h-154z" />
<glyph unicode="/" horiz-adv-x="663" d="M18 0l471 1434h156l-473 -1434h-154z" />
<glyph unicode="0" d="M76 293v848q0 315 293 315q290 0 290 -315v-848q0 -316 -290 -316q-293 0 -293 316zM231 274q0 -81 33 -121t105 -40q71 0 103 40t32 121v885q0 81 -32 121.5t-103 40.5q-72 0 -105 -40.5t-33 -121.5v-885z" />
<glyph unicode="1" horiz-adv-x="446" d="M49 1217v131h92q94 0 101 86h88v-1434h-156v1217h-125z" />
<glyph unicode="2" horiz-adv-x="706" d="M66 0v170q0 102 23.5 188t61.5 147.5t84 116t92 105.5t84 103t61.5 121t23.5 149v53q0 168 -138 168q-137 0 -137 -168v-242h-145v222q0 163 73.5 243t212.5 80q287 0 287 -323v-27q0 -95 -23.5 -176.5t-61.5 -140.5t-83.5 -112.5t-91 -105t-83.5 -105.5t-61.5 -126.5 t-23.5 -155.5v-28h422v-156h-577z" />
<glyph unicode="3" horiz-adv-x="704" d="M66 299v213h145v-231q0 -168 137 -168t137 168v231q0 86 -31.5 128t-105.5 42h-104v133h104q74 0 105.5 42.5t31.5 127.5v168q0 168 -137 168t-137 -168v-168h-145v152q0 319 286 319q287 0 287 -319v-115q0 -121 -36 -185.5t-109 -88.5q73 -24 109 -88t36 -185v-176 q0 -162 -73.5 -242t-213.5 -80q-139 0 -212.5 80t-73.5 242z" />
<glyph unicode="4" horiz-adv-x="722" d="M47 299v129l367 1006h174v-983h92v-152h-92v-299h-156v299h-385zM195 451h237v372q0 235 21 426q-47 -189 -117 -393z" />
<glyph unicode="5" horiz-adv-x="739" d="M90 301v201h143v-221q0 -168 138 -168q137 0 137 168v497q0 92 -29 127t-92 35q-65 0 -109.5 -53t-44.5 -127v-88h-143v762h563v-156h-420v-344q27 63 82 101t129 38q220 0 220 -287v-485q0 -163 -74 -243.5t-213 -80.5q-287 0 -287 324z" />
<glyph unicode="6" horiz-adv-x="724" d="M76 293v840q0 323 286 323q287 0 287 -323v-43h-145v63q0 168 -135 168q-138 0 -138 -168v-319q28 60 82.5 97.5t126.5 37.5q103 0 161 -65.5t58 -221.5v-389q0 -316 -290 -316q-293 0 -293 316zM231 274q0 -81 33 -121t105 -40q71 0 103 40t32 121v400q0 90 -29 125 t-92 35q-64 0 -108 -53t-44 -126v-381z" />
<glyph unicode="7" horiz-adv-x="667" d="M57 0l424 1278h-424v156h576v-127l-404 -1307h-172z" />
<glyph unicode="8" horiz-adv-x="714" d="M66 287v188q0 106 31.5 174t105.5 99q-75 31 -106 99t-31 175v125q0 160 74 234.5t218 74.5q143 0 217 -74.5t74 -234.5v-125q0 -107 -31 -175t-106 -99q74 -31 105.5 -99t31.5 -174v-188q0 -160 -74 -235t-217 -75q-292 0 -292 310zM221 274q0 -81 32.5 -121t104.5 -40 t105 40t33 121v232q0 93 -29.5 134.5t-108.5 41.5q-82 0 -109.5 -39.5t-27.5 -136.5v-232zM221 991q0 -96 28 -136t109 -40q79 0 108.5 41.5t29.5 134.5v168q0 81 -33 121.5t-105 40.5t-104.5 -40.5t-32.5 -121.5v-168z" />
<glyph unicode="9" horiz-adv-x="724" d="M66 772v369q0 315 292 315q291 0 291 -315v-840q0 -324 -287 -324q-139 0 -212.5 80.5t-73.5 243.5v64h145v-84q0 -168 137 -168q138 0 138 168v344q-27 -63 -83 -101.5t-128 -38.5q-103 0 -161 65.5t-58 221.5zM221 780q0 -90 29 -124.5t92 -34.5q65 0 109.5 52.5 t44.5 125.5v360q0 81 -33 121.5t-105 40.5t-104.5 -40.5t-32.5 -121.5v-379z" />
<glyph unicode=":" horiz-adv-x="368" d="M106 0v264h154v-264h-154zM106 733v264h154v-264h-154z" />
<glyph unicode=";" horiz-adv-x="368" d="M86 -197l98 197h-78v264h154v-264l-158 -209zM106 733v264h154v-264h-154z" />
<glyph unicode="&#x3c;" d="M76 651v129l583 279v-137l-434 -203l434 -205v-143z" />
<glyph unicode="=" d="M76 477v135h583v-135h-583zM76 821v133h583v-133h-583z" />
<glyph unicode="&#x3e;" d="M76 371v143l434 205l-434 203v137l583 -279v-129z" />
<glyph unicode="?" horiz-adv-x="649" d="M37 911v222q0 163 74 243t213 80q288 0 288 -323v-43q0 -80 -14.5 -141.5t-37.5 -100.5t-50.5 -72t-55 -65t-50.5 -69t-37.5 -95.5t-14.5 -134.5v-62h-90v103q0 83 11 146t28 101t38 69t41.5 59.5t37.5 62t28 87t11 124.5v51q0 168 -138 168q-137 0 -137 -168v-242h-145z M229 0v240h156v-240h-156z" />
<glyph unicode="@" horiz-adv-x="1265" d="M76 717q0 89 6 163.5t21.5 152.5t42 138.5t69.5 115.5t100.5 91t138.5 57t181 21q99 0 179.5 -21t137.5 -57t100 -91t69 -115.5t41.5 -138.5t21.5 -152.5t6 -163.5t-6 -163.5t-21.5 -152.5t-41.5 -139t-69 -116t-100 -91t-137.5 -57t-179.5 -21q-100 0 -181 21t-138.5 57 t-100.5 91t-69.5 116t-42 139t-21.5 152t-6 164zM178 717q0 -80 4 -144t16 -132.5t32.5 -120.5t55.5 -100t82 -79t115 -49t152 -18t151 18t114 49t81 79t54.5 99.5t32 121t15.5 132.5t4 144t-4 144t-15.5 132.5t-32 121t-54.5 99.5t-81 79t-114 49t-151 18t-152 -18 t-115 -49t-82 -79t-55.5 -100t-32.5 -120.5t-16 -132.5t-4 -144zM416 469v39q0 60 16.5 106t42.5 74t57 49.5t62.5 37t57.5 31t42.5 38t16.5 51.5v57q0 57 -19.5 83t-64.5 26q-44 0 -64 -26.5t-20 -82.5v-106h-111v98q0 117 50 171t151 54t148.5 -54t47.5 -171v-446 q0 -82 4 -119.5t17 -99.5h-109q-14 25 -20 94q-15 -48 -56 -79.5t-94 -31.5q-155 0 -155 207zM537 479q0 -61 20.5 -83.5t60.5 -22.5q37 0 65 31t28 75v260q-14 -9 -45.5 -28t-49 -32t-38.5 -34.5t-31 -50t-10 -64.5v-51z" />
<glyph unicode="A" horiz-adv-x="759" d="M20 0l248 1434h219l248 -1434h-174l-41 231h-303l-39 -231h-158zM242 377h254l-64 368q-39 221 -63 486q-23 -253 -64 -486z" />
<glyph unicode="B" horiz-adv-x="806" d="M104 0v1434h302q57 0 100 -6.5t87 -26t72.5 -53.5t46 -92t17.5 -138v-106q0 -119 -36.5 -182t-108.5 -89q153 -53 153 -268v-154q0 -80 -18.5 -139t-48 -93t-74.5 -54t-89 -26.5t-101 -6.5h-302zM279 152h110q98 0 136 38t38 136v178q0 97 -38 133.5t-136 36.5h-110v-522 zM279 823h110q98 0 136 36.5t38 133.5v119q0 97 -38 133.5t-136 36.5h-110v-459z" />
<glyph unicode="C" horiz-adv-x="776" d="M76 326v782q0 348 315 348q318 0 318 -348v-193h-164v215q0 173 -148 173q-77 0 -112 -42.5t-35 -130.5v-827q0 -88 35 -130t112 -42q76 0 112 42.5t36 129.5v258h164v-235q0 -349 -318 -349q-315 0 -315 349z" />
<glyph unicode="D" horiz-adv-x="823" d="M104 0v1434h287q342 0 342 -334v-766q0 -334 -342 -334h-287zM279 152h100q98 0 139 40.5t41 137.5v774q0 97 -41 137.5t-139 40.5h-100v-1130z" />
<glyph unicode="E" horiz-adv-x="669" d="M104 0v1434h504v-152h-329v-459h292v-151h-292v-520h339v-152h-514z" />
<glyph unicode="F" horiz-adv-x="616" d="M104 0v1434h492v-152h-317v-483h282v-154h-282v-645h-175z" />
<glyph unicode="G" horiz-adv-x="788" d="M76 326v782q0 348 315 348q318 0 318 -348v-156h-164v178q0 173 -148 173q-77 0 -112 -42.5t-35 -130.5v-827q0 -88 35 -130t112 -42q76 0 112 42.5t36 129.5v352h-148v142h316v-797h-90l-17 121q-63 -144 -248 -144q-282 0 -282 349z" />
<glyph unicode="H" horiz-adv-x="854" d="M104 0v1434h175v-611h296v611h175v-1434h-175v672h-296v-672h-175z" />
<glyph unicode="I" horiz-adv-x="376" d="M100 0v1434h174v-1434h-174z" />
<glyph unicode="J" horiz-adv-x="743" d="M20 309v252h162v-266q0 -84 36 -124t112 -40q77 0 112 40t35 124v1139h174v-1125q0 -332 -315 -332q-316 0 -316 332z" />
<glyph unicode="K" horiz-adv-x="813" d="M104 0v1434h175v-740q59 151 163 369l179 371h167l-276 -590l287 -844h-178l-220 659l-122 -245v-414h-175z" />
<glyph unicode="L" horiz-adv-x="598" d="M104 0v1434h175v-1282h317v-152h-492z" />
<glyph unicode="M" horiz-adv-x="1132" d="M100 0v1434h244l154 -727q52 -262 65 -400q14 148 68 400l151 727h246v-1434h-170v805q0 150 12 420q-28 -192 -73 -418l-172 -807h-144l-172 807q-45 226 -73 418q12 -202 12 -420v-805h-148z" />
<glyph unicode="N" horiz-adv-x="868" d="M100 0v1434h234l217 -750q13 -47 41 -161.5t41 -162.5q-15 250 -15 328v746h148v-1434h-195l-254 870q-15 53 -45 181t-34 145q12 -204 12 -330v-866h-150z" />
<glyph unicode="O" horiz-adv-x="794" d="M76 326v782q0 348 321 348q322 0 322 -348v-782q0 -349 -322 -349q-321 0 -321 349zM250 303q0 -88 35 -130t112 -42q76 0 112 42.5t36 129.5v827q0 173 -148 173q-77 0 -112 -42.5t-35 -130.5v-827z" />
<glyph unicode="P" horiz-adv-x="763" d="M104 0v1434h281q344 0 344 -334v-252q0 -334 -344 -334h-106v-514h-175zM279 666h94q99 0 140.5 40t41.5 136v262q0 97 -42 137.5t-140 40.5h-94v-616z" />
<glyph unicode="Q" horiz-adv-x="815" d="M76 326v782q0 348 321 348q322 0 322 -348v-909q0 -35 9.5 -49.5t33.5 -14.5q11 0 39 4v-147q-30 -15 -66 -15q-103 0 -131 84q-75 -84 -223 -84q-142 0 -223.5 83.5t-81.5 265.5zM250 303q0 -88 35 -130t112 -42q76 0 112 42.5t36 129.5v827q0 173 -148 173 q-77 0 -112 -42.5t-35 -130.5v-827z" />
<glyph unicode="R" horiz-adv-x="817" d="M104 0v1434h302q57 0 101 -6t89.5 -26t74.5 -53.5t47.5 -92t18.5 -138.5v-133q0 -217 -159 -274q159 -56 159 -281v-57q0 -177 10.5 -247.5t36.5 -125.5h-188q-33 118 -33 289v121q0 131 -44 179t-167 48h-73v-637h-175zM279 788h110q99 0 136.5 36t37.5 134v154 q0 97 -38 133.5t-136 36.5h-110v-494z" />
<glyph unicode="S" horiz-adv-x="745" d="M63 326v172h164v-195q0 -88 32.5 -130t107.5 -42q76 0 107.5 41.5t31.5 130.5v29q0 73 -24.5 131t-63.5 99t-86.5 79t-94.5 81t-86 94t-63.5 128.5t-24.5 175.5v4q0 332 310 332q152 0 229.5 -84t77.5 -264v-133h-162v155q0 89 -32.5 131t-108.5 42q-75 0 -107 -42 t-32 -131v-12q0 -73 24.5 -132t63.5 -100t86 -79.5t94 -81.5t86 -93.5t63.5 -128.5t24.5 -175v-19q0 -169 -76.5 -250.5t-230.5 -81.5q-310 0 -310 349z" />
<glyph unicode="T" horiz-adv-x="614" d="M0 1282v152h612v-152h-219v-1282h-174v1282h-219z" />
<glyph unicode="U" horiz-adv-x="811" d="M90 309v1125h174v-1139q0 -84 36 -124t114 -40q76 0 111.5 40t35.5 124v1139h162v-1125q0 -332 -315 -332q-318 0 -318 332z" />
<glyph unicode="V" horiz-adv-x="753" d="M25 1434h176l129 -746q31 -189 57 -444q23 224 59 444l127 746h160l-248 -1434h-213z" />
<glyph unicode="W" horiz-adv-x="1177" d="M25 1434h174l104 -697q35 -224 53 -463q13 212 52 465l104 695h176l105 -697q31 -200 51 -463q19 259 51 465l104 695h160l-213 -1434h-209l-102 698q-34 237 -47 418q-22 -258 -45 -418l-101 -698h-204z" />
<glyph unicode="X" horiz-adv-x="743" d="M25 0l229 739l-215 695h178l90 -301q50 -162 74 -275q16 77 74 275l88 301h162l-216 -695l230 -739h-178l-103 348q-57 186 -73 277q-32 -140 -74 -277l-105 -348h-161z" />
<glyph unicode="Y" horiz-adv-x="765" d="M25 1434h178l121 -449q42 -152 71 -311q13 93 70 311l119 449h161l-272 -945v-489h-174v475z" />
<glyph unicode="Z" horiz-adv-x="653" d="M41 0v115l381 1167h-371v152h561v-117l-381 -1165h381v-152h-571z" />
<glyph unicode="[" horiz-adv-x="485" d="M104 -186v1675h381v-123h-219v-1429h219v-123h-381z" />
<glyph unicode="\" horiz-adv-x="663" d="M18 1434h156l471 -1434h-153z" />
<glyph unicode="]" horiz-adv-x="485" d="M0 -63h219v1429h-219v123h381v-1675h-381v123z" />
<glyph unicode="^" d="M51 803l254 631h125l254 -631h-143l-172 457l-174 -457h-144z" />
<glyph unicode="_" horiz-adv-x="1024" d="M0 -74h1024v-100h-1024v100z" />
<glyph unicode="`" horiz-adv-x="569" d="M137 1419h160l135 -252h-104z" />
<glyph unicode="a" horiz-adv-x="731" d="M59 250v18q0 68 18.5 122.5t48.5 89.5t69 64.5t79 47.5t79 38t69 38t48.5 45t18.5 61v14q0 162 -129 162q-69 0 -100 -41t-31 -121v-75h-145v57q0 161 71 237t212 76q138 0 208 -76t70 -237v-424q0 -142 4 -210.5t17 -135.5h-150q-17 46 -20 133q-25 -69 -81 -112.5 t-134 -43.5q-104 0 -163 62t-59 211zM215 262q0 -87 29.5 -119t93.5 -32t107.5 53t43.5 127v276q-25 -17 -70 -39.5t-75.5 -41t-63 -46t-49 -67.5t-16.5 -92v-19z" />
<glyph unicode="b" horiz-adv-x="757" d="M96 0v1434h156v-490q27 63 82 101t127 38q104 0 162.5 -65t58.5 -221v-533q0 -156 -58.5 -221.5t-162.5 -65.5q-78 0 -135.5 44t-81.5 114l-33 -135h-115zM252 291q0 -73 43.5 -125.5t107.5 -52.5q63 0 93 34.5t30 124.5v516q0 90 -30 125t-93 35q-64 0 -107.5 -52.5 t-43.5 -125.5v-479z" />
<glyph unicode="c" horiz-adv-x="714" d="M76 293v475q0 315 286 315q287 0 287 -315v-86h-145v104q0 81 -32 121.5t-103 40.5q-72 0 -105 -40.5t-33 -121.5v-512q0 -81 33 -121t105 -40q71 0 103 40t32 121v125h145v-106q0 -316 -287 -316q-286 0 -286 316z" />
<glyph unicode="d" horiz-adv-x="757" d="M76 264v533q0 156 58.5 221t162.5 65q71 0 126.5 -38.5t82.5 -100.5v490h156v-1088q0 -146 3.5 -213t16.5 -133h-150q-17 46 -20 129q-26 -67 -83 -109.5t-132 -42.5q-104 0 -162.5 65.5t-58.5 221.5zM231 272q0 -90 30 -124.5t93 -34.5q64 0 108 52.5t44 125.5v479 q0 73 -44 125.5t-108 52.5q-63 0 -93 -35t-30 -125v-516z" />
<glyph unicode="e" horiz-adv-x="718" d="M76 293v475q0 315 286 315q287 0 287 -315v-281h-418v-213q0 -81 33 -121t105 -40q71 0 103 40t32 121v86h145v-67q0 -316 -287 -316q-286 0 -286 316zM231 618h273v168q0 81 -32 121.5t-103 40.5q-72 0 -105 -40.5t-33 -121.5v-168z" />
<glyph unicode="f" horiz-adv-x="477" d="M37 926v135h92v153q0 126 55.5 184t175.5 58q74 0 129 -22v-127q-43 18 -100 18t-81.5 -29.5t-24.5 -103.5v-131h206v-135h-206v-926h-154v926h-92z" />
<glyph unicode="g" horiz-adv-x="759" d="M66 621v167q0 159 71 227t215 68q184 0 246 -110q16 88 92 88q33 0 49 -6v-129q-32 4 -49 4q-41 0 -41 -66v-243q0 -160 -73.5 -228.5t-217.5 -68.5q-46 0 -90 6q-39 -17 -39 -72q0 -29 18.5 -50.5t55.5 -21.5h180q132 0 194 -55t62 -176q0 -236 -278 -236h-146 q-243 0 -243 193q0 115 86 160q-60 42 -60 133q0 105 84 155q-116 63 -116 261zM199 -68q0 -59 29.5 -85.5t111.5 -26.5h102q73 0 108.5 25t35.5 85q0 61 -29.5 84t-93.5 23h-162q-54 0 -78 -31t-24 -74zM221 604q0 -162 137 -162q138 0 138 162v199q0 162 -138 162 q-137 0 -137 -162v-199z" />
<glyph unicode="h" horiz-adv-x="768" d="M96 0v1434h156v-490q27 63 82 101t127 38q104 0 162.5 -65t58.5 -221v-797h-156v788q0 90 -30 125t-93 35t-107 -52.5t-44 -125.5v-770h-156z" />
<glyph unicode="i" horiz-adv-x="348" d="M96 0v1061h156v-1061h-156zM96 1241v193h156v-193h-156z" />
<glyph unicode="j" horiz-adv-x="348" d="M-27 -139q26 -11 54 -11q39 0 54 21t15 70v1120h156v-1127q0 -112 -45.5 -161t-147.5 -49q-51 0 -86 14v123zM96 1241v193h156v-193h-156z" />
<glyph unicode="k" horiz-adv-x="749" d="M96 0v1434h156v-914q32 73 143 258l172 283h148l-252 -434l274 -627h-162l-213 489l-110 -180v-309h-156z" />
<glyph unicode="l" horiz-adv-x="348" d="M96 0v1434h156v-1434h-156z" />
<glyph unicode="m" horiz-adv-x="1159" d="M96 0v1061h146v-137q21 70 76 114.5t135 44.5q156 0 194 -155q24 69 80 112t135 43q103 0 157 -64.5t54 -221.5v-797h-155v788q0 91 -25.5 125.5t-87.5 34.5q-63 0 -103 -52t-40 -126v-770h-154v788q0 91 -25.5 125.5t-87.5 34.5q-63 0 -103 -52t-40 -126v-770h-156z" />
<glyph unicode="n" horiz-adv-x="768" d="M96 0v1061h146v-141q23 71 81 117t138 46q104 0 162.5 -65t58.5 -221v-797h-156v788q0 90 -30 125t-93 35q-64 0 -107.5 -52.5t-43.5 -125.5v-770h-156z" />
<glyph unicode="o" d="M76 293v475q0 315 293 315q290 0 290 -315v-475q0 -316 -290 -316q-293 0 -293 316zM231 274q0 -81 33 -121t105 -40q71 0 103 40t32 121v512q0 81 -32 121.5t-103 40.5q-72 0 -105 -40.5t-33 -121.5v-512z" />
<glyph unicode="p" horiz-adv-x="757" d="M96 -258v1319h146v-141q23 71 81 117t138 46q104 0 162.5 -65t58.5 -221v-533q0 -156 -58.5 -221.5t-162.5 -65.5q-72 0 -126.5 38.5t-82.5 99.5v-373h-156zM252 291q0 -73 43.5 -125.5t107.5 -52.5q63 0 93 34.5t30 124.5v516q0 90 -30 125t-93 35q-64 0 -107.5 -52.5 t-43.5 -125.5v-479z" />
<glyph unicode="q" horiz-adv-x="757" d="M76 264v533q0 156 58.5 221t162.5 65q79 0 136 -44t81 -115l33 137h115v-1319h-156v373q-27 -61 -82.5 -99.5t-126.5 -38.5q-104 0 -162.5 65.5t-58.5 221.5zM231 272q0 -90 30 -124.5t93 -34.5q64 0 108 52.5t44 125.5v479q0 73 -44 125.5t-108 52.5q-63 0 -93 -35 t-30 -125v-516z" />
<glyph unicode="r" horiz-adv-x="698" d="M96 0v1061h146v-139q23 71 79 116t136 45q101 0 153 -63t52 -219v-271h-146v258q0 91 -27.5 125.5t-89.5 34.5q-63 0 -105 -52.5t-42 -125.5v-770h-156z" />
<glyph unicode="s" horiz-adv-x="692" d="M66 283v67h143v-82q0 -81 30.5 -122.5t100.5 -41.5q71 0 101 38.5t30 115.5v18q0 46 -22.5 80.5t-58 57.5t-79 44.5t-86.5 48.5t-78.5 61.5t-58 92t-22.5 132.5v4q0 286 282 286q281 0 281 -305v-51h-146v66q0 82 -30 122.5t-101 40.5t-101 -38t-30 -115v-10 q0 -46 22.5 -81t58 -58.5t79 -45.5t87 -49.5t79 -62.5t58 -92.5t22.5 -131.5v-4q0 -291 -281 -291q-139 0 -209.5 74.5t-70.5 231.5z" />
<glyph unicode="t" horiz-adv-x="466" d="M37 926v135h92v227h154v-227h161v-135h-161v-711q0 -50 18.5 -71t60.5 -21q51 0 82 8v-131q-50 -12 -116 -12q-106 0 -152.5 48t-46.5 163v727h-92z" />
<glyph unicode="u" horiz-adv-x="768" d="M86 264v797h156v-789q0 -90 30 -124.5t93 -34.5q64 0 107.5 52.5t43.5 125.5v295v475h156v-715q0 -146 3.5 -213t16.5 -133h-149q-18 49 -21 129q-26 -67 -83 -109.5t-132 -42.5q-104 0 -162.5 65.5t-58.5 221.5z" />
<glyph unicode="v" horiz-adv-x="690" d="M14 1061h158l127 -576q35 -159 53 -327q22 175 56 327l124 576h146l-238 -1061h-190z" />
<glyph unicode="w" horiz-adv-x="1087" d="M14 1061h160l107 -578q15 -77 41 -307q17 189 40 307l105 578h168l104 -578q25 -128 41 -307q18 158 43 307l105 578h147l-207 -1061h-182l-104 545q-16 90 -39 297q-14 -159 -39 -297l-101 -545h-184z" />
<glyph unicode="x" horiz-adv-x="688" d="M14 0l230 555l-209 506h164l69 -178q45 -116 84 -238q6 16 18.5 55t28 83t37.5 100l70 178h147l-209 -506l228 -555h-164l-92 227q-52 131 -80 232q-36 -113 -84 -232l-90 -227h-148z" />
<glyph unicode="y" horiz-adv-x="690" d="M14 1061h158l127 -576q35 -159 53 -327q22 175 56 327l124 576h146l-256 -1143q-22 -100 -72 -147t-162 -47q-62 0 -100 10v125q34 -11 74 -11q43 0 64 18t32 62q2 9 2 20q0 26 -8 64z" />
<glyph unicode="z" horiz-adv-x="620" d="M37 0v117l377 809h-359v135h529v-117l-379 -809h379v-135h-547z" />
<glyph unicode="{" horiz-adv-x="497" d="M0 551v137h49q67 0 90 26.5t23 102.5q0 56 -18.5 160.5t-18.5 163.5q0 88 22.5 148t66.5 91.5t96.5 44.5t123.5 13h62v-123h-43q-93 0 -130.5 -39.5t-37.5 -138.5q0 -47 19.5 -148t19.5 -149q0 -178 -111 -222q54 -22 82.5 -73t28.5 -146q0 -48 -19.5 -149t-19.5 -148 q0 -99 37.5 -138.5t130.5 -39.5h43v-123h-62q-71 0 -123.5 13t-96.5 44.5t-66.5 91.5t-22.5 148q0 59 18.5 163.5t18.5 160.5q0 74 -23 101.5t-90 27.5h-49z" />
<glyph unicode="|" horiz-adv-x="569" d="M213 -258v1692h143v-1692h-143z" />
<glyph unicode="}" horiz-adv-x="497" d="M2 -76h43q93 0 130.5 39.5t37.5 138.5q0 47 -19.5 148t-19.5 149q0 95 28.5 146t82.5 73q-111 44 -111 222q0 48 19.5 149t19.5 148q0 99 -37.5 138.5t-130.5 39.5h-43v123h61q71 0 123.5 -13t96.5 -44.5t67 -91.5t23 -148q0 -59 -18.5 -163.5t-18.5 -160.5 q0 -76 23 -102.5t90 -26.5h49v-137h-49q-67 0 -90 -27.5t-23 -101.5q0 -56 18.5 -160.5t18.5 -163.5q0 -88 -23 -148t-67 -91.5t-96.5 -44.5t-123.5 -13h-61v123z" />
<glyph unicode="~" d="M76 616v134q68 73 149 73q52 0 150 -40t145 -40q76 0 139 74v-135q-69 -74 -151 -74q-50 0 -149 40t-146 40q-76 0 -137 -72z" />
<glyph unicode="&#xa1;" horiz-adv-x="387" d="M104 244l43 563h89l43 -563v-520h-175v520zM109 938v219h165v-219h-165z" />
<glyph unicode="&#xa2;" d="M80 481v471q0 295 250 314v137h76v-137q249 -19 249 -314v-84h-145v105q0 80 -32.5 120t-104.5 40t-104.5 -40t-32.5 -120v-512q0 -80 32.5 -120t104.5 -40t104.5 40t32.5 120v125h145v-105q0 -293 -249 -315v-135h-76v135q-250 19 -250 315z" />
<glyph unicode="&#xa3;" d="M63 0v133q92 31 139 93.5t54 170.5h-168v113h166q-8 57 -30.5 115t-48 107.5t-50 104t-41 125.5t-16.5 150v33q0 155 78 233t225 78q303 0 303 -332v-198h-156v217q0 84 -34 125t-105 41q-75 0 -109 -40.5t-34 -125.5v-35q0 -71 14 -134.5t35.5 -114t43 -99.5t39.5 -114 t23 -136h219v-113h-221q-16 -161 -137 -241h420v-156h-609z" />
<glyph unicode="&#xa4;" d="M49 467l119 113q-45 61 -45 137t45 137l-119 111l70 69l108 -119q65 48 142 48q74 0 139 -48l108 119l72 -69l-121 -111q45 -61 45 -137t-45 -137l121 -113l-72 -68l-108 119q-63 -47 -139 -47q-79 0 -142 47l-108 -119zM213 717q0 -68 43.5 -112t112.5 -44q67 0 111 44 t44 112q0 67 -44 111t-111 44q-69 0 -112.5 -43.5t-43.5 -111.5z" />
<glyph unicode="&#xa5;" d="M35 1434h160l112 -449q52 -201 70 -311q17 119 67 311l113 449h143l-233 -875h199v-84h-220v-153h220v-84h-220v-238h-155v238h-223v84h223v153h-223v84h200z" />
<glyph unicode="&#xa6;" horiz-adv-x="569" d="M213 -258v711h143v-711h-143zM213 723v711h143v-711h-143z" />
<glyph unicode="&#xa7;" horiz-adv-x="739" d="M63 684v2q0 166 127 229q-124 98 -124 254v5q0 135 81 208.5t222 73.5q144 0 224.5 -77t80.5 -226v-104h-158v114q0 166 -141 166q-72 0 -108 -39t-36 -106v-10q0 -51 24.5 -91.5t64 -68.5t87 -53.5t94.5 -55.5t86.5 -66t64 -92.5t24.5 -128.5v-2q0 -168 -127 -231 q127 -101 127 -252v-4q0 -135 -82 -209t-223 -74q-143 0 -223 77.5t-80 226.5v104h155v-115q0 -166 142 -166q72 0 107.5 39t35.5 107v10q0 51 -24.5 91.5t-64 68t-86.5 53.5t-94.5 55.5t-87 65.5t-64 92.5t-24.5 128.5zM195 711q0 -34 12.5 -64t27.5 -50t48 -45t54 -37.5 t65.5 -37.5t64.5 -37q37 20 57.5 60.5t20.5 91.5q0 33 -12.5 62.5t-28.5 50t-48 44t-55 37t-65 37.5t-64 37q-77 -35 -77 -149z" />
<glyph unicode="&#xa8;" horiz-adv-x="569" d="M76 1194v182h145v-182h-145zM348 1194v182h148v-182h-148z" />
<glyph unicode="&#xa9;" horiz-adv-x="1265" d="M76 717q0 89 6 163.5t21.5 152.5t42 138.5t69.5 115.5t100.5 91t138.5 57t181 21q99 0 179.5 -21t137.5 -57t100 -91t69 -115.5t41.5 -138.5t21.5 -152.5t6 -163.5t-6 -163.5t-21.5 -152.5t-41.5 -139t-69 -116t-100 -91t-137.5 -57t-179.5 -21q-100 0 -181 21t-138.5 57 t-100.5 91t-69.5 116t-42 139t-21.5 152t-6 164zM178 717q0 -80 4 -144t16 -132.5t32.5 -120.5t55.5 -100t82 -79t115 -49t152 -18t151 18t114 49t81 79t54.5 99.5t32 121t15.5 132.5t4 144t-4 144t-15.5 132.5t-32 121t-54.5 99.5t-81 79t-114 49t-151 18t-152 -18 t-115 -49t-82 -79t-55.5 -100t-32.5 -120.5t-16 -132.5t-4 -144zM436 481v465q0 219 197 219q96 0 144 -53t48 -166v-98h-108v104q0 55 -18.5 81t-61.5 26q-44 0 -63 -26t-19 -81v-479q0 -55 19 -80.5t63 -25.5q43 0 61.5 25.5t18.5 80.5v105h108v-97q0 -115 -47.5 -168 t-144.5 -53q-99 0 -148 53t-49 168z" />
<glyph unicode="&#xaa;" horiz-adv-x="540" d="M51 449v126h434v-126h-434zM51 883v6q0 62 22 108.5t55.5 71.5t72 46.5t72 35.5t55.5 36t22 50v2q0 55 -19.5 81t-64.5 26q-44 0 -63 -26t-19 -81v-39h-116v31q0 117 50.5 171t153.5 54q102 0 152.5 -54t50.5 -171v-316q0 -81 3.5 -118t15.5 -101h-111q-18 30 -21 101 q-16 -49 -57 -82t-96 -33q-158 0 -158 201zM178 897q0 -61 20.5 -82.5t59.5 -21.5q38 0 65 30t27 74v199q-15 -10 -45.5 -27t-48 -29t-38 -31t-30.5 -44.5t-10 -57.5v-10z" />
<glyph unicode="&#xab;" horiz-adv-x="782" d="M25 530l249 531h154l-250 -531l250 -530h-154zM354 530l250 531h154l-250 -531l250 -530h-154z" />
<glyph unicode="&#xac;" d="M76 649v133h583v-397h-135v264h-448z" />
<glyph unicode="&#xad;" horiz-adv-x="569" d="M68 459v139h434v-139h-434z" />
<glyph unicode="&#xae;" horiz-adv-x="1265" d="M76 717q0 89 6 163.5t21.5 152.5t42 138.5t69.5 115.5t100.5 91t138.5 57t181 21q99 0 179.5 -21t137.5 -57t100 -91t69 -115.5t41.5 -138.5t21.5 -152.5t6 -163.5t-6 -163.5t-21.5 -152.5t-41.5 -139t-69 -116t-100 -91t-137.5 -57t-179.5 -21q-100 0 -181 21t-138.5 57 t-100.5 91t-69.5 116t-42 139t-21.5 152t-6 164zM178 717q0 -80 4 -144t16 -132.5t32.5 -120.5t55.5 -100t82 -79t115 -49t152 -18t151 18t114 49t81 79t54.5 99.5t32 121t15.5 132.5t4 144t-4 144t-15.5 132.5t-32 121t-54.5 99.5t-81 79t-114 49t-151 18t-152 -18 t-115 -49t-82 -79t-55.5 -100t-32.5 -120.5t-16 -132.5t-4 -144zM430 279v872h211q203 0 203 -199v-71q0 -140 -101 -172q101 -32 101 -172v-9q0 -100 4.5 -148.5t10.5 -62.5t24 -38h-135q-23 59 -23 190v72q0 57 -26.5 86.5t-73.5 29.5h-74v-378h-121zM551 764h84 q47 0 68.5 24t21.5 74v92q0 88 -90 88h-84v-278z" />
<glyph unicode="&#xaf;" horiz-adv-x="569" d="M57 1217v106h455v-106h-455z" />
<glyph unicode="&#xb0;" horiz-adv-x="563" d="M43 1178q0 99 69 167t169 68t169.5 -68t69.5 -167q0 -100 -69.5 -169t-169.5 -69t-169 69t-69 169zM158 1178q0 -54 35 -88.5t88 -34.5q54 0 89.5 34.5t35.5 88.5q0 52 -35.5 86t-89.5 34q-53 0 -88 -34t-35 -86z" />
<glyph unicode="&#xb1;" d="M76 342v133h223v217h-223v135h223v263h135v-263h225v-135h-225v-217h225v-133h-583z" />
<glyph unicode="&#xb2;" horiz-adv-x="542" d="M74 700v101q0 84 29 154t70 118.5t82 95t70 107t29 131.5v16q0 55 -19.5 81t-64.5 26q-44 0 -63 -26t-19 -81v-106h-114v102q0 115 51 168t149 53q203 0 203 -217v-16q0 -70 -20 -130t-50.5 -99.5t-66.5 -82t-67 -78.5t-52.5 -88t-23.5 -112h274v-117h-397z" />
<glyph unicode="&#xb3;" horiz-adv-x="542" d="M68 897v84h114v-84q0 -56 20.5 -82.5t65.5 -26.5q44 0 64 26.5t20 82.5v123q0 55 -18.5 78.5t-65.5 23.5h-69v109h69q47 0 65.5 21.5t18.5 74.5v96q0 109 -84 109q-86 0 -86 -109v-71h-114v69q0 219 202 219q205 0 205 -219v-69q0 -145 -102 -176q102 -35 102 -181v-98 q0 -219 -205 -219q-202 0 -202 219z" />
<glyph unicode="&#xb4;" horiz-adv-x="569" d="M137 1167l133 252h162l-190 -252h-105z" />
<glyph unicode="&#xb5;" horiz-adv-x="778" d="M96 -258v1319h156v-789q0 -90 30 -124.5t93 -34.5q64 0 107.5 52.5t43.5 125.5v770h156v-715q0 -146 3.5 -213t16.5 -133h-149q-18 49 -21 133q-24 -69 -81 -112.5t-134 -43.5q-30 0 -65 7v-242h-156z" />
<glyph unicode="&#xb6;" horiz-adv-x="911" d="M37 698v408q0 328 338 328h432v-1567h-133v1431h-152v-1431h-135v504h-12q-338 0 -338 327z" />
<glyph unicode="&#xb7;" horiz-adv-x="368" d="M106 584v264h154v-264h-154z" />
<glyph unicode="&#xb8;" horiz-adv-x="569" d="M96 -156h97q-3 -38 16 -53.5t67 -15.5q44 0 63 14t19 43q0 32 -24.5 44t-93.5 11v113h63v-72q91 0 132.5 -21t41.5 -79q0 -104 -201 -104q-92 0 -139 26.5t-41 93.5z" />
<glyph unicode="&#xb9;" horiz-adv-x="542" d="M164 1432v114h57q44 0 65 18t27 54h66v-918h-123v732h-92z" />
<glyph unicode="&#xba;" horiz-adv-x="540" d="M61 449v126h418v-126h-418zM61 907v324q0 117 52 171t157 54t157 -54t52 -171v-324q0 -117 -52 -171t-157 -54t-157 54t-52 171zM184 899q0 -56 20.5 -82t65.5 -26t65.5 26t20.5 82v340q0 56 -20.5 81.5t-65.5 25.5t-65.5 -25.5t-20.5 -81.5v-340z" />
<glyph unicode="&#xbb;" horiz-adv-x="782" d="M25 0l249 530l-249 531h153l250 -531l-250 -530h-153zM354 0l250 530l-250 531h154l250 -531l-250 -530h-154z" />
<glyph unicode="&#xbc;" horiz-adv-x="1105" d="M82 1247v115h57q44 0 65 18t27 54h66v-918h-123v731h-92zM203 0l583 1434h117l-584 -1434h-116zM616 201v94l244 623h148v-607h55v-110h-55v-201h-123v201h-269zM733 311h152v162q0 152 20 322q-36 -130 -100 -297z" />
<glyph unicode="&#xbd;" horiz-adv-x="1187" d="M82 1247v115h57q44 0 65 18t27 54h66v-918h-123v731h-92zM203 0l583 1434h117l-584 -1434h-116zM719 0v100q0 84 29 154t70 118.5t82 95.5t70 107.5t29 131.5v16q0 55 -19.5 80.5t-64.5 25.5q-43 0 -62 -25.5t-19 -80.5v-107h-115v103q0 221 201 221q202 0 202 -217v-16 q0 -70 -20 -130t-50.5 -99.5t-66.5 -82t-67 -78.5t-52.5 -88t-23.5 -112h274v-117h-397z" />
<glyph unicode="&#xbe;" horiz-adv-x="1187" d="M68 713v84h114v-84q0 -56 20.5 -82.5t65.5 -26.5q44 0 64 26.5t20 82.5v123q0 55 -18.5 78.5t-65.5 23.5h-69v109h69q47 0 65.5 21.5t18.5 74.5v96q0 109 -84 109q-86 0 -86 -109v-72h-114v70q0 219 202 219q205 0 205 -219v-70q0 -145 -102 -176q102 -35 102 -180v-98 q0 -219 -205 -219q-202 0 -202 219zM285 0l583 1434h117l-584 -1434h-116zM698 201v94l244 623h148v-607h55v-110h-55v-201h-123v201h-269zM815 311h152v162q0 152 20 322q-36 -130 -100 -297z" />
<glyph unicode="&#xbf;" horiz-adv-x="649" d="M37 25v43q0 80 14.5 141.5t37.5 100.5t50.5 71.5t55 64.5t50.5 69t37.5 95.5t14.5 134.5v62h90v-102q0 -83 -10.5 -146t-28 -101.5t-38 -69t-41 -59.5t-38 -62.5t-28 -87t-10.5 -124.5v-51q0 -168 137 -168t137 168v242h145v-221q0 -163 -73.5 -243.5t-212.5 -80.5 q-140 0 -214.5 80.5t-74.5 243.5zM264 918v239h156v-239h-156z" />
<glyph unicode="&#xc0;" horiz-adv-x="759" d="M20 0l248 1434h219l248 -1434h-174l-41 231h-303l-39 -231h-158zM184 1761h160l135 -252h-104zM242 377h254l-64 368q-39 221 -63 486q-23 -253 -64 -486z" />
<glyph unicode="&#xc1;" horiz-adv-x="759" d="M20 0l248 1434h219l248 -1434h-174l-41 231h-303l-39 -231h-158zM242 377h254l-64 368q-39 221 -63 486q-23 -253 -64 -486zM279 1509l133 252h161l-190 -252h-104z" />
<glyph unicode="&#xc2;" horiz-adv-x="759" d="M20 0l248 1434h219l248 -1434h-174l-41 231h-303l-39 -231h-158zM150 1509l167 252h123l170 -252h-110l-121 144l-121 -144h-108zM242 377h254l-64 368q-39 221 -63 486q-23 -253 -64 -486z" />
<glyph unicode="&#xc3;" horiz-adv-x="759" d="M20 0l248 1434h219l248 -1434h-174l-41 231h-303l-39 -231h-158zM139 1532q3 180 142 180q46 0 108.5 -33.5t91.5 -33.5q48 0 56 73h84q-6 -180 -144 -180q-47 0 -110 33t-91 33q-47 0 -55 -72h-82zM242 377h254l-64 368q-39 221 -63 486q-23 -253 -64 -486z" />
<glyph unicode="&#xc4;" horiz-adv-x="759" d="M20 0l248 1434h219l248 -1434h-174l-41 231h-303l-39 -231h-158zM170 1536v182h145v-182h-145zM242 377h254l-64 368q-39 221 -63 486q-23 -253 -64 -486zM442 1536v182h148v-182h-148z" />
<glyph unicode="&#xc5;" horiz-adv-x="759" d="M20 0l248 1434h219l248 -1434h-174l-41 231h-303l-39 -231h-158zM227 1661q0 64 45 107.5t107 43.5q64 0 108.5 -43.5t44.5 -107.5q0 -65 -44.5 -109.5t-108.5 -44.5q-62 0 -107 44.5t-45 109.5zM242 377h254l-64 368q-39 221 -63 486q-23 -253 -64 -486zM305 1661 q0 -34 21 -55t53 -21q34 0 54 21t20 55q0 33 -20.5 54.5t-53.5 21.5q-32 0 -53 -22t-21 -54z" />
<glyph unicode="&#xc6;" horiz-adv-x="1009" d="M8 0l369 1434h571v-152h-330v-459h293v-151h-293v-520h340v-152h-514v231h-219l-59 -231h-158zM262 377h182v399q0 156 15 445q-66 -320 -115 -516z" />
<glyph unicode="&#xc7;" horiz-adv-x="776" d="M76 326v782q0 348 315 348q318 0 318 -348v-193h-164v215q0 173 -148 173q-77 0 -112 -42.5t-35 -130.5v-827q0 -88 35 -130t112 -42q76 0 112 42.5t36 129.5v258h164v-235q0 -340 -303 -349v-49q91 0 132.5 -21t41.5 -79q0 -104 -201 -104q-92 0 -139 26.5t-41 93.5h96 q-3 -38 16.5 -53.5t67.5 -15.5q44 0 63 14t19 43q0 32 -25 44t-94 11v93q-266 25 -266 346z" />
<glyph unicode="&#xc8;" horiz-adv-x="669" d="M104 0v1434h504v-152h-329v-459h292v-151h-292v-520h339v-152h-514zM164 1761h160l135 -252h-105z" />
<glyph unicode="&#xc9;" horiz-adv-x="669" d="M104 0v1434h504v-152h-329v-459h292v-151h-292v-520h339v-152h-514zM256 1509l133 252h162l-191 -252h-104z" />
<glyph unicode="&#xca;" horiz-adv-x="669" d="M104 0v1434h504v-152h-329v-459h292v-151h-292v-520h339v-152h-514zM127 1509l168 252h123l170 -252h-111l-121 144l-120 -144h-109z" />
<glyph unicode="&#xcb;" horiz-adv-x="669" d="M104 0v1434h504v-152h-329v-459h292v-151h-292v-520h339v-152h-514zM147 1536v182h146v-182h-146zM420 1536v182h147v-182h-147z" />
<glyph unicode="&#xcc;" horiz-adv-x="376" d="M-6 1761h160l135 -252h-105zM100 0v1434h174v-1434h-174z" />
<glyph unicode="&#xcd;" horiz-adv-x="376" d="M88 1509l133 252h162l-190 -252h-105zM100 0v1434h174v-1434h-174z" />
<glyph unicode="&#xce;" horiz-adv-x="376" d="M-41 1509l168 252h123l170 -252h-111l-121 144l-120 -144h-109zM100 0v1434h174v-1434h-174z" />
<glyph unicode="&#xcf;" horiz-adv-x="376" d="M-20 1536v182h145v-182h-145zM100 0v1434h174v-1434h-174zM252 1536v182h147v-182h-147z" />
<glyph unicode="&#xd0;" horiz-adv-x="825" d="M33 682v131h73v621h285q344 0 344 -334v-766q0 -334 -344 -334h-285v682h-73zM281 152h98q98 0 140 40.5t42 137.5v774q0 97 -42 137.5t-140 40.5h-98v-469h153v-131h-153v-530z" />
<glyph unicode="&#xd1;" horiz-adv-x="868" d="M100 0v1434h234l217 -750q13 -47 41 -161.5t41 -162.5q-15 250 -15 328v746h148v-1434h-195l-254 870q-15 53 -45 181t-34 145q12 -204 12 -330v-866h-150zM193 1532q3 180 141 180q46 0 109 -33.5t92 -33.5q47 0 55 73h84q-6 -180 -144 -180q-47 0 -109.5 33t-90.5 33 q-48 0 -56 -72h-81z" />
<glyph unicode="&#xd2;" horiz-adv-x="794" d="M76 326v782q0 348 321 348q322 0 322 -348v-782q0 -349 -322 -349q-321 0 -321 349zM203 1761h159l136 -252h-105zM250 303q0 -88 35 -130t112 -42q76 0 112 42.5t36 129.5v827q0 173 -148 173q-77 0 -112 -42.5t-35 -130.5v-827z" />
<glyph unicode="&#xd3;" horiz-adv-x="794" d="M76 326v782q0 348 321 348q322 0 322 -348v-782q0 -349 -322 -349q-321 0 -321 349zM250 303q0 -88 35 -130t112 -42q76 0 112 42.5t36 129.5v827q0 173 -148 173q-77 0 -112 -42.5t-35 -130.5v-827zM295 1509l133 252h162l-191 -252h-104z" />
<glyph unicode="&#xd4;" horiz-adv-x="794" d="M76 326v782q0 348 321 348q322 0 322 -348v-782q0 -349 -322 -349q-321 0 -321 349zM168 1509l168 252h123l170 -252h-111l-121 144l-121 -144h-108zM250 303q0 -88 35 -130t112 -42q76 0 112 42.5t36 129.5v827q0 173 -148 173q-77 0 -112 -42.5t-35 -130.5v-827z" />
<glyph unicode="&#xd5;" horiz-adv-x="794" d="M76 326v782q0 348 321 348q322 0 322 -348v-782q0 -349 -322 -349q-321 0 -321 349zM158 1532q3 180 141 180q46 0 109 -33.5t92 -33.5q47 0 55 73h84q-6 -180 -143 -180q-47 0 -110 33t-91 33q-47 0 -55 -72h-82zM250 303q0 -88 35 -130t112 -42q76 0 112 42.5t36 129.5 v827q0 173 -148 173q-77 0 -112 -42.5t-35 -130.5v-827z" />
<glyph unicode="&#xd6;" horiz-adv-x="794" d="M76 326v782q0 348 321 348q322 0 322 -348v-782q0 -349 -322 -349q-321 0 -321 349zM188 1536v182h146v-182h-146zM250 303q0 -88 35 -130t112 -42q76 0 112 42.5t36 129.5v827q0 173 -148 173q-77 0 -112 -42.5t-35 -130.5v-827zM461 1536v182h147v-182h-147z" />
<glyph unicode="&#xd7;" d="M74 516l200 199l-200 198l96 95l197 -203l198 205l94 -97l-200 -198l200 -199l-94 -94l-198 201l-197 -199z" />
<glyph unicode="&#xd8;" horiz-adv-x="794" d="M76 326v782q0 348 321 348q99 0 164 -33l29 88l119 -38l-45 -138q55 -86 55 -227v-782q0 -349 -322 -349q-93 0 -166 31l-26 -86l-117 39l43 135q-55 82 -55 230zM250 451l258 809q-37 43 -111 43q-77 0 -112 -42.5t-35 -130.5v-679zM285 172q35 -41 112 -41 q76 0 112 42.5t36 129.5v676z" />
<glyph unicode="&#xd9;" horiz-adv-x="811" d="M90 309v1125h174v-1139q0 -84 36 -124t114 -40q76 0 111.5 40t35.5 124v1139h162v-1125q0 -332 -315 -332q-318 0 -318 332zM211 1761h160l135 -252h-105z" />
<glyph unicode="&#xda;" horiz-adv-x="811" d="M90 309v1125h174v-1139q0 -84 36 -124t114 -40q76 0 111.5 40t35.5 124v1139h162v-1125q0 -332 -315 -332q-318 0 -318 332zM305 1509l133 252h162l-190 -252h-105z" />
<glyph unicode="&#xdb;" horiz-adv-x="811" d="M90 309v1125h174v-1139q0 -84 36 -124t114 -40q76 0 111.5 40t35.5 124v1139h162v-1125q0 -332 -315 -332q-318 0 -318 332zM176 1509l168 252h123l170 -252h-111l-120 144l-121 -144h-109z" />
<glyph unicode="&#xdc;" horiz-adv-x="811" d="M90 309v1125h174v-1139q0 -84 36 -124t114 -40q76 0 111.5 40t35.5 124v1139h162v-1125q0 -332 -315 -332q-318 0 -318 332zM197 1536v182h145v-182h-145zM469 1536v182h147v-182h-147z" />
<glyph unicode="&#xdd;" horiz-adv-x="765" d="M25 1434h178l121 -449q42 -152 71 -311q13 93 70 311l119 449h161l-272 -945v-489h-174v475zM281 1509l133 252h161l-190 -252h-104z" />
<glyph unicode="&#xde;" horiz-adv-x="763" d="M104 0v1434h175v-144h106q344 0 344 -334v-251q0 -334 -344 -334h-106v-371h-175zM279 522h94q99 0 140.5 40t41.5 136v263q0 97 -42 137.5t-140 40.5h-94v-617z" />
<glyph unicode="&#xdf;" horiz-adv-x="749" d="M96 0v1153q0 159 74 231t219 72t219 -72t74 -231v-57q0 -112 -40.5 -176t-125.5 -86q85 -22 125.5 -85.5t40.5 -173.5v-344q0 -127 -56 -187t-182 -60q-60 0 -106 16v133q37 -12 74 -12q66 0 90 29.5t24 103.5v362q0 156 -157 156h-31v123h31q157 0 157 156v108 q0 81 -32.5 121.5t-104.5 40.5t-104.5 -40.5t-32.5 -121.5v-1159h-156z" />
<glyph unicode="&#xe0;" horiz-adv-x="731" d="M59 250v18q0 68 18.5 122.5t48.5 89.5t69 64.5t79 47.5t79 38t69 38t48.5 45t18.5 61v14q0 162 -129 162q-69 0 -100 -41t-31 -121v-75h-145v57q0 161 71 237t212 76q138 0 208 -76t70 -237v-424q0 -142 4 -210.5t17 -135.5h-150q-17 46 -20 133q-25 -69 -81 -112.5 t-134 -43.5q-104 0 -163 62t-59 211zM172 1419h160l135 -252h-105zM215 262q0 -87 29.5 -119t93.5 -32t107.5 53t43.5 127v276q-25 -17 -70 -39.5t-75.5 -41t-63 -46t-49 -67.5t-16.5 -92v-19z" />
<glyph unicode="&#xe1;" horiz-adv-x="731" d="M59 250v18q0 68 18.5 122.5t48.5 89.5t69 64.5t79 47.5t79 38t69 38t48.5 45t18.5 61v14q0 162 -129 162q-69 0 -100 -41t-31 -121v-75h-145v57q0 161 71 237t212 76q138 0 208 -76t70 -237v-424q0 -142 4 -210.5t17 -135.5h-150q-17 46 -20 133q-25 -69 -81 -112.5 t-134 -43.5q-104 0 -163 62t-59 211zM215 262q0 -87 29.5 -119t93.5 -32t107.5 53t43.5 127v276q-25 -17 -70 -39.5t-75.5 -41t-63 -46t-49 -67.5t-16.5 -92v-19zM264 1167l133 252h162l-190 -252h-105z" />
<glyph unicode="&#xe2;" horiz-adv-x="731" d="M59 250v18q0 68 18.5 122.5t48.5 89.5t69 64.5t79 47.5t79 38t69 38t48.5 45t18.5 61v14q0 162 -129 162q-69 0 -100 -41t-31 -121v-75h-145v57q0 161 71 237t212 76q138 0 208 -76t70 -237v-424q0 -142 4 -210.5t17 -135.5h-150q-17 46 -20 133q-25 -69 -81 -112.5 t-134 -43.5q-104 0 -163 62t-59 211zM135 1167l168 252h123l170 -252h-111l-120 144l-121 -144h-109zM215 262q0 -87 29.5 -119t93.5 -32t107.5 53t43.5 127v276q-25 -17 -70 -39.5t-75.5 -41t-63 -46t-49 -67.5t-16.5 -92v-19z" />
<glyph unicode="&#xe3;" horiz-adv-x="731" d="M59 250v18q0 68 18.5 122.5t48.5 89.5t69 64.5t79 47.5t79 38t69 38t48.5 45t18.5 61v14q0 162 -129 162q-69 0 -100 -41t-31 -121v-75h-145v57q0 161 71 237t212 76q138 0 208 -76t70 -237v-424q0 -142 4 -210.5t17 -135.5h-150q-17 46 -20 133q-25 -69 -81 -112.5 t-134 -43.5q-104 0 -163 62t-59 211zM125 1190q3 180 141 180q46 0 109 -33.5t92 -33.5q47 0 55 73h84q-6 -180 -143 -180q-47 0 -110 33t-91 33q-47 0 -55 -72h-82zM215 262q0 -87 29.5 -119t93.5 -32t107.5 53t43.5 127v276q-25 -17 -70 -39.5t-75.5 -41t-63 -46 t-49 -67.5t-16.5 -92v-19z" />
<glyph unicode="&#xe4;" horiz-adv-x="731" d="M59 250v18q0 68 18.5 122.5t48.5 89.5t69 64.5t79 47.5t79 38t69 38t48.5 45t18.5 61v14q0 162 -129 162q-69 0 -100 -41t-31 -121v-75h-145v57q0 161 71 237t212 76q138 0 208 -76t70 -237v-424q0 -142 4 -210.5t17 -135.5h-150q-17 46 -20 133q-25 -69 -81 -112.5 t-134 -43.5q-104 0 -163 62t-59 211zM156 1194v182h145v-182h-145zM215 262q0 -87 29.5 -119t93.5 -32t107.5 53t43.5 127v276q-25 -17 -70 -39.5t-75.5 -41t-63 -46t-49 -67.5t-16.5 -92v-19zM428 1194v182h147v-182h-147z" />
<glyph unicode="&#xe5;" horiz-adv-x="731" d="M59 250v18q0 68 18.5 122.5t48.5 89.5t69 64.5t79 47.5t79 38t69 38t48.5 45t18.5 61v14q0 162 -129 162q-69 0 -100 -41t-31 -121v-75h-145v57q0 161 71 237t212 76q138 0 208 -76t70 -237v-424q0 -142 4 -210.5t17 -135.5h-150q-17 46 -20 133q-25 -69 -81 -112.5 t-134 -43.5q-104 0 -163 62t-59 211zM213 1319q0 64 45 107.5t107 43.5q64 0 108.5 -43.5t44.5 -107.5q0 -65 -44.5 -109.5t-108.5 -44.5q-62 0 -107 44.5t-45 109.5zM215 262q0 -87 29.5 -119t93.5 -32t107.5 53t43.5 127v276q-25 -17 -70 -39.5t-75.5 -41t-63 -46 t-49 -67.5t-16.5 -92v-19zM291 1319q0 -34 21 -55t53 -21q33 0 53 21t20 55q0 33 -20 54.5t-53 21.5q-32 0 -53 -22t-21 -54z" />
<glyph unicode="&#xe6;" horiz-adv-x="1132" d="M59 250v18q0 68 18.5 122.5t48.5 89.5t69 64.5t79 47.5t79 38t69 38t48.5 45t18.5 61v12q0 81 -30.5 121.5t-100.5 40.5q-71 0 -100 -39.5t-29 -122.5v-73h-145v55q0 162 66 238.5t200 76.5q156 0 219 -108q63 108 224 108q135 0 202.5 -76.5t67.5 -238.5v-281h-418v-213 q0 -81 32.5 -121t104.5 -40t105 40t33 121v86h143v-67q0 -316 -287 -316q-218 0 -272 185q-18 -79 -77.5 -132t-145.5 -53q-104 0 -163 62t-59 211zM215 262q0 -87 29.5 -119t93.5 -32t107.5 53t43.5 127v276q-25 -17 -70 -39.5t-75.5 -41t-63 -46t-49 -67.5t-16.5 -92v-19z M645 618h275v170q0 80 -33 120t-105 40t-104.5 -40t-32.5 -120v-170z" />
<glyph unicode="&#xe7;" horiz-adv-x="714" d="M76 293v475q0 315 286 315q287 0 287 -315v-86h-145v104q0 81 -32 121.5t-103 40.5q-72 0 -105 -40.5t-33 -121.5v-512q0 -81 33 -121t105 -40q71 0 103 40t32 121v125h145v-106q0 -307 -272 -316v-49q91 0 132.5 -21t41.5 -79q0 -104 -201 -104q-92 0 -139 26.5 t-41 93.5h96q-3 -38 16.5 -53.5t67.5 -15.5q44 0 63 14t19 43q0 32 -25 44t-94 11v95q-237 25 -237 311z" />
<glyph unicode="&#xe8;" horiz-adv-x="718" d="M76 293v475q0 315 286 315q287 0 287 -315v-281h-418v-213q0 -81 33 -121t105 -40q71 0 103 40t32 121v86h145v-67q0 -316 -287 -316q-286 0 -286 316zM170 1419h160l135 -252h-105zM231 618h273v168q0 81 -32 121.5t-103 40.5q-72 0 -105 -40.5t-33 -121.5v-168z" />
<glyph unicode="&#xe9;" horiz-adv-x="718" d="M76 293v475q0 315 286 315q287 0 287 -315v-281h-418v-213q0 -81 33 -121t105 -40q71 0 103 40t32 121v86h145v-67q0 -316 -287 -316q-286 0 -286 316zM231 618h273v168q0 81 -32 121.5t-103 40.5q-72 0 -105 -40.5t-33 -121.5v-168zM264 1167l133 252h162l-190 -252 h-105z" />
<glyph unicode="&#xea;" horiz-adv-x="718" d="M76 293v475q0 315 286 315q287 0 287 -315v-281h-418v-213q0 -81 33 -121t105 -40q71 0 103 40t32 121v86h145v-67q0 -316 -287 -316q-286 0 -286 316zM133 1167l168 252h123l170 -252h-111l-121 144l-120 -144h-109zM231 618h273v168q0 81 -32 121.5t-103 40.5 q-72 0 -105 -40.5t-33 -121.5v-168z" />
<glyph unicode="&#xeb;" horiz-adv-x="718" d="M76 293v475q0 315 286 315q287 0 287 -315v-281h-418v-213q0 -81 33 -121t105 -40q71 0 103 40t32 121v86h145v-67q0 -316 -287 -316q-286 0 -286 316zM154 1194v182h145v-182h-145zM231 618h273v168q0 81 -32 121.5t-103 40.5q-72 0 -105 -40.5t-33 -121.5v-168z M426 1194v182h147v-182h-147z" />
<glyph unicode="&#xec;" horiz-adv-x="348" d="M-18 1419h159l135 -252h-104zM96 0v1061h156v-1061h-156z" />
<glyph unicode="&#xed;" horiz-adv-x="348" d="M76 1167l133 252h162l-191 -252h-104zM96 0v1061h156v-1061h-156z" />
<glyph unicode="&#xee;" horiz-adv-x="348" d="M-55 1167l168 252h123l170 -252h-111l-121 144l-121 -144h-108zM96 0v1061h156v-1061h-156z" />
<glyph unicode="&#xef;" horiz-adv-x="348" d="M-35 1194v182h146v-182h-146zM96 0v1061h156v-1061h-156zM238 1194v182h147v-182h-147z" />
<glyph unicode="&#xf0;" horiz-adv-x="745" d="M76 293v504q0 156 58 221t161 65q71 0 125.5 -37t83.5 -98v129q0 115 -33 164l-100 -100l-45 45l98 98q-44 23 -111 23h-63l26 127h58q118 0 194 -45l45 45h91l-86 -86q81 -87 81 -273v-782q0 -316 -290 -316q-293 0 -293 316zM231 274q0 -81 33 -121t105 -40 q71 0 103 40t32 121v496q0 73 -44 125.5t-108 52.5q-63 0 -92 -35t-29 -125v-514z" />
<glyph unicode="&#xf1;" horiz-adv-x="768" d="M96 0v1061h146v-141q23 71 81 117t138 46q104 0 162.5 -65t58.5 -221v-797h-156v788q0 90 -30 125t-93 35q-64 0 -107.5 -52.5t-43.5 -125.5v-770h-156zM143 1190q3 180 142 180q46 0 108.5 -33.5t91.5 -33.5q48 0 56 73h84q-6 -180 -144 -180q-47 0 -109.5 33t-90.5 33 q-48 0 -56 -72h-82z" />
<glyph unicode="&#xf2;" d="M76 293v475q0 315 293 315q290 0 290 -315v-475q0 -316 -290 -316q-293 0 -293 316zM172 1419h160l135 -252h-105zM231 274q0 -81 33 -121t105 -40q71 0 103 40t32 121v512q0 81 -32 121.5t-103 40.5q-72 0 -105 -40.5t-33 -121.5v-512z" />
<glyph unicode="&#xf3;" d="M76 293v475q0 315 293 315q290 0 290 -315v-475q0 -316 -290 -316q-293 0 -293 316zM231 274q0 -81 33 -121t105 -40q71 0 103 40t32 121v512q0 81 -32 121.5t-103 40.5q-72 0 -105 -40.5t-33 -121.5v-512zM266 1167l133 252h162l-190 -252h-105z" />
<glyph unicode="&#xf4;" d="M76 293v475q0 315 293 315q290 0 290 -315v-475q0 -316 -290 -316q-293 0 -293 316zM137 1167l168 252h123l170 -252h-111l-120 144l-121 -144h-109zM231 274q0 -81 33 -121t105 -40q71 0 103 40t32 121v512q0 81 -32 121.5t-103 40.5q-72 0 -105 -40.5t-33 -121.5v-512z " />
<glyph unicode="&#xf5;" d="M76 293v475q0 315 293 315q290 0 290 -315v-475q0 -316 -290 -316q-293 0 -293 316zM127 1190q3 180 141 180q46 0 109 -33.5t92 -33.5q47 0 55 73h84q-6 -180 -143 -180q-47 0 -110 33t-91 33q-47 0 -55 -72h-82zM231 274q0 -81 33 -121t105 -40q71 0 103 40t32 121v512 q0 81 -32 121.5t-103 40.5q-72 0 -105 -40.5t-33 -121.5v-512z" />
<glyph unicode="&#xf6;" d="M76 293v475q0 315 293 315q290 0 290 -315v-475q0 -316 -290 -316q-293 0 -293 316zM158 1194v182h145v-182h-145zM231 274q0 -81 33 -121t105 -40q71 0 103 40t32 121v512q0 81 -32 121.5t-103 40.5q-72 0 -105 -40.5t-33 -121.5v-512zM430 1194v182h148v-182h-148z" />
<glyph unicode="&#xf7;" d="M76 649v133h583v-133h-583zM254 438q0 49 32.5 81t80.5 32q49 0 80.5 -31.5t31.5 -81.5t-31.5 -82t-80.5 -32q-48 0 -80.5 32.5t-32.5 81.5zM254 983q0 47 33 80t80 33q49 0 80.5 -32.5t31.5 -80.5q0 -50 -31.5 -82.5t-80.5 -32.5q-48 0 -80.5 33t-32.5 82z" />
<glyph unicode="&#xf8;" d="M74 -39l51 125q-49 76 -49 207v475q0 315 293 315q87 0 149 -30l39 92l102 -45l-51 -125q51 -76 51 -207v-475q0 -316 -290 -316q-90 0 -154 31l-37 -92zM231 338l232 580q-30 30 -94 30q-72 0 -105 -40.5t-33 -121.5v-448zM270 145q32 -32 99 -32q71 0 103 40t32 121 v453z" />
<glyph unicode="&#xf9;" horiz-adv-x="768" d="M86 264v797h156v-789q0 -90 30 -124.5t93 -34.5q64 0 107.5 52.5t43.5 125.5v295v475h156v-715q0 -146 3.5 -213t16.5 -133h-149q-18 49 -21 129q-26 -67 -83 -109.5t-132 -42.5q-104 0 -162.5 65.5t-58.5 221.5zM188 1419h160l135 -252h-104z" />
<glyph unicode="&#xfa;" horiz-adv-x="768" d="M86 264v797h156v-789q0 -90 30 -124.5t93 -34.5q64 0 107.5 52.5t43.5 125.5v295v475h156v-715q0 -146 3.5 -213t16.5 -133h-149q-18 49 -21 129q-26 -67 -83 -109.5t-132 -42.5q-104 0 -162.5 65.5t-58.5 221.5zM283 1167l133 252h162l-191 -252h-104z" />
<glyph unicode="&#xfb;" horiz-adv-x="768" d="M86 264v797h156v-789q0 -90 30 -124.5t93 -34.5q64 0 107.5 52.5t43.5 125.5v295v475h156v-715q0 -146 3.5 -213t16.5 -133h-149q-18 49 -21 129q-26 -67 -83 -109.5t-132 -42.5q-104 0 -162.5 65.5t-58.5 221.5zM154 1167l168 252h122l170 -252h-110l-121 144l-121 -144 h-108z" />
<glyph unicode="&#xfc;" horiz-adv-x="768" d="M86 264v797h156v-789q0 -90 30 -124.5t93 -34.5q64 0 107.5 52.5t43.5 125.5v295v475h156v-715q0 -146 3.5 -213t16.5 -133h-149q-18 49 -21 129q-26 -67 -83 -109.5t-132 -42.5q-104 0 -162.5 65.5t-58.5 221.5zM174 1194v182h145v-182h-145zM446 1194v182h148v-182 h-148z" />
<glyph unicode="&#xfd;" horiz-adv-x="690" d="M14 1061h158l127 -576q35 -159 53 -327q22 175 56 327l124 576h146l-256 -1143q-22 -100 -72 -147t-162 -47q-62 0 -100 10v125q34 -11 74 -11q43 0 64 18t32 62q5 28 -6 84zM238 1167l133 252h161l-190 -252h-104z" />
<glyph unicode="&#xfe;" horiz-adv-x="757" d="M96 -258v1692h156v-490q27 63 82 101t127 38q104 0 162.5 -65t58.5 -221v-533q0 -156 -58.5 -221.5t-162.5 -65.5q-72 0 -126.5 38.5t-82.5 99.5v-373h-156zM252 291q0 -73 43.5 -125.5t107.5 -52.5q63 0 93 34.5t30 124.5v516q0 90 -30 125t-93 35q-64 0 -107.5 -52.5 t-43.5 -125.5v-479z" />
<glyph unicode="&#xff;" horiz-adv-x="690" d="M14 1061h158l127 -576q35 -159 53 -327q22 175 56 327l124 576h146l-256 -1143q-22 -100 -72 -147t-162 -47q-62 0 -100 10v125q34 -11 74 -11q43 0 64 18t32 62q5 28 -6 84zM143 1194v182h146v-182h-146zM416 1194v182h147v-182h-147z" />
<glyph unicode="&#x152;" horiz-adv-x="1110" d="M90 334v766q0 334 344 334h615v-152h-330v-459h293v-151h-293v-520h340v-152h-625q-344 0 -344 334zM264 330q0 -97 41 -137.5t141 -40.5h99v1130h-99q-100 0 -141 -40.5t-41 -137.5v-774z" />
<glyph unicode="&#x153;" horiz-adv-x="1148" d="M76 293v475q0 315 278 315q168 0 228 -125q60 125 227 125q135 0 202.5 -76.5t67.5 -238.5v-281h-417v-213q0 -81 32.5 -121t104.5 -40t104.5 40t32.5 121v86h143v-67q0 -162 -67.5 -239t-202.5 -77q-168 0 -227 123q-59 -123 -228 -123q-278 0 -278 316zM231 274 q0 -81 33 -121t105 -40q71 0 104 40t33 121v514q0 160 -137 160q-72 0 -105 -40t-33 -120v-514zM662 618h274v170q0 80 -32.5 120t-104.5 40t-104.5 -40t-32.5 -120v-170z" />
<glyph unicode="&#x178;" horiz-adv-x="765" d="M25 1434h178l121 -449q42 -152 71 -311q13 93 70 311l119 449h161l-272 -945v-489h-174v475zM174 1536v182h145v-182h-145zM446 1536v182h148v-182h-148z" />
<glyph unicode="&#x2c6;" horiz-adv-x="569" d="M55 1167l168 252h123l170 -252h-110l-121 144l-121 -144h-109z" />
<glyph unicode="&#x2dc;" horiz-adv-x="569" d="M45 1190q3 180 141 180q46 0 109 -33.5t92 -33.5q47 0 55 73h84q-6 -180 -143 -180q-47 0 -110 33t-91 33q-47 0 -55 -72h-82z" />
<glyph unicode="&#x2000;" horiz-adv-x="906" />
<glyph unicode="&#x2001;" horiz-adv-x="1812" />
<glyph unicode="&#x2002;" horiz-adv-x="906" />
<glyph unicode="&#x2003;" horiz-adv-x="1812" />
<glyph unicode="&#x2004;" horiz-adv-x="604" />
<glyph unicode="&#x2005;" horiz-adv-x="453" />
<glyph unicode="&#x2006;" horiz-adv-x="302" />
<glyph unicode="&#x2007;" horiz-adv-x="302" />
<glyph unicode="&#x2008;" horiz-adv-x="226" />
<glyph unicode="&#x2009;" horiz-adv-x="362" />
<glyph unicode="&#x200a;" horiz-adv-x="100" />
<glyph unicode="&#x2010;" horiz-adv-x="569" d="M68 459v139h434v-139h-434z" />
<glyph unicode="&#x2011;" horiz-adv-x="569" d="M68 459v139h434v-139h-434z" />
<glyph unicode="&#x2012;" horiz-adv-x="569" d="M68 459v139h434v-139h-434z" />
<glyph unicode="&#x2013;" horiz-adv-x="1024" d="M0 461v139h1024v-139h-1024z" />
<glyph unicode="&#x2014;" horiz-adv-x="2048" d="M0 461v139h2048v-139h-2048z" />
<glyph unicode="&#x2018;" horiz-adv-x="368" d="M109 961v264l157 209l17 -13l-99 -196h78v-264h-153z" />
<glyph unicode="&#x2019;" horiz-adv-x="368" d="M86 973l98 196h-78v265h154v-265l-158 -208z" />
<glyph unicode="&#x201a;" horiz-adv-x="368" d="M86 -197l98 197h-78v264h154v-264l-158 -209z" />
<glyph unicode="&#x201c;" horiz-adv-x="677" d="M106 961v264l158 209l17 -13l-99 -196h78v-264h-154zM418 961v264l157 209l17 -13l-98 -196h77v-264h-153z" />
<glyph unicode="&#x201d;" horiz-adv-x="677" d="M86 973l98 196h-78v265h154v-265l-158 -208zM395 973l99 196h-78v265h153v-265l-157 -208z" />
<glyph unicode="&#x201e;" horiz-adv-x="677" d="M86 -197l98 197h-78v264h154v-264l-158 -209zM395 -197l99 197h-78v264h153v-264l-157 -209z" />
<glyph unicode="&#x2022;" horiz-adv-x="663" d="M90 717q0 100 70 170.5t170 70.5t170.5 -70.5t70.5 -170.5t-70.5 -170t-170.5 -70t-170 70t-70 170z" />
<glyph unicode="&#x2026;" horiz-adv-x="987" d="M106 0v264h154v-264h-154zM416 0v264h153v-264h-153zM727 0v264h154v-264h-154z" />
<glyph unicode="&#x202f;" horiz-adv-x="362" />
<glyph unicode="&#x2039;" horiz-adv-x="452" d="M25 530l249 531h154l-250 -531l250 -530h-154z" />
<glyph unicode="&#x203a;" horiz-adv-x="452" d="M25 0l249 530l-249 531h153l250 -531l-250 -530h-153z" />
<glyph unicode="&#x205f;" horiz-adv-x="453" />
<glyph unicode="&#x20ac;" d="M0 567v78h74v143h-74v78h76v275q0 315 293 315q290 0 290 -315v-111h-155v129q0 81 -32 121.5t-103 40.5q-72 0 -105 -40.5t-33 -121.5v-293h428v-78h-428v-143h428v-78h-428v-293q0 -81 33 -121t105 -40q71 0 103 40t32 121v129h155v-110q0 -316 -290 -316 q-293 0 -293 316v274h-76z" />
<glyph unicode="&#x2122;" horiz-adv-x="964" d="M0 1333v101h330v-101h-109v-647h-112v647h-109zM397 686v748h166l51 -283q21 -108 33 -248q10 107 33 248l49 283h168v-748h-109v334q0 56 4 160t5 133q-5 -38 -49 -293l-62 -334h-94l-60 334q-22 122 -49 293q1 -29 5 -133t4 -160v-334h-95z" />
<glyph unicode="&#xe000;" horiz-adv-x="1064" d="M0 0v1065h1065v-1065h-1065z" />
</font>
</defs>
</svg>
